<svg xmlns="http://www.w3.org/2000/svg" xmlns:xlink="http://www.w3.org/1999/xlink" contentStyleType="text/css" height="1859px" preserveAspectRatio="none" style="width:2856px;height:1859px;background:#FFFFFF;" version="1.1" viewBox="0 0 2856 1859" width="2856px" zoomAndPan="magnify"><defs/><g><!--cluster genMatrix--><g id="cluster_genMatrix"><path d="M11,6 L85,6 A7.5,7.5 0 0 1 90,11 L97,28.2969 L2844,28.2969 A5,5 0 0 1 2849,33.2969 L2849,1847.91 A5,5 0 0 1 2844,1852.91 L11,1852.91 A5,5 0 0 1 6,1847.91 L6,11 A5,5 0 0 1 11,6 " fill="none" style="stroke:#000000;stroke-width:1.5;"/><line style="stroke:#000000;stroke-width:1.5;" x1="6" x2="97" y1="28.2969" y2="28.2969"/><text fill="#000000" font-family="sans-serif" font-size="14" font-weight="bold" lengthAdjust="spacing" textLength="78" x="10" y="20.9951">genMatrix</text></g><!--cluster internal--><g id="cluster_internal"><path d="M35,166.71 L91,166.71 A7.5,7.5 0 0 1 96,171.71 L103,189.0069 L892,189.0069 A5,5 0 0 1 897,194.0069 L897,1144.63 A5,5 0 0 1 892,1149.63 L35,1149.63 A5,5 0 0 1 30,1144.63 L30,171.71 A5,5 0 0 1 35,166.71 " fill="none" style="stroke:#000000;stroke-width:1.5;"/><line style="stroke:#000000;stroke-width:1.5;" x1="30" x2="103" y1="189.0069" y2="189.0069"/><text fill="#000000" font-family="sans-serif" font-size="14" font-weight="bold" lengthAdjust="spacing" textLength="60" x="34" y="181.7051">internal</text></g><!--cluster types--><g id="cluster_types"><path d="M59,209.71 L99,209.71 A7.5,7.5 0 0 1 104,214.71 L111,232.0069 L868,232.0069 A5,5 0 0 1 873,237.0069 L873,1120.63 A5,5 0 0 1 868,1125.63 L59,1125.63 A5,5 0 0 1 54,1120.63 L54,214.71 A5,5 0 0 1 59,209.71 " fill="none" style="stroke:#000000;stroke-width:1.5;"/><line style="stroke:#000000;stroke-width:1.5;" x1="54" x2="111" y1="232.0069" y2="232.0069"/><text fill="#000000" font-family="sans-serif" font-size="14" font-weight="bold" lengthAdjust="spacing" textLength="44" x="58" y="224.7051">types</text></g><!--class Complex--><g id="elem_Complex"><rect codeLine="47" fill="#F1F1F1" height="488.0156" id="Complex" rx="5" ry="5" style="stroke:#181818;stroke-width:0.5;" width="363" x="76.5" y="1348.89"/><ellipse cx="223.75" cy="1364.89" fill="#ADD1B2" rx="11" ry="11" style="stroke:#181818;stroke-width:1.0;"/><path d="M226.7188,1370.5306 Q226.1406,1370.8275 225.5,1370.9681 Q224.8594,1371.1244 224.1563,1371.1244 Q221.6563,1371.1244 220.3281,1369.4838 Q219.0156,1367.8275 219.0156,1364.7025 Q219.0156,1361.5775 220.3281,1359.9213 Q221.6563,1358.265 224.1563,1358.265 Q224.8594,1358.265 225.5,1358.4213 Q226.1563,1358.5775 226.7188,1358.8744 L226.7188,1361.5931 Q226.0938,1361.015 225.5,1360.7494 Q224.9063,1360.4681 224.2813,1360.4681 Q222.9375,1360.4681 222.25,1361.5463 Q221.5625,1362.6088 221.5625,1364.7025 Q221.5625,1366.7963 222.25,1367.8744 Q222.9375,1368.9369 224.2813,1368.9369 Q224.9063,1368.9369 225.5,1368.6713 Q226.0938,1368.39 226.7188,1367.8119 L226.7188,1370.5306 Z " fill="#000000"/><text fill="#000000" font-family="sans-serif" font-size="14" lengthAdjust="spacing" textLength="60" x="244.25" y="1369.7367">Complex</text><line style="stroke:#181818;stroke-width:0.5;" x1="77.5" x2="438.5" y1="1380.89" y2="1380.89"/><line style="stroke:#181818;stroke-width:0.5;" x1="77.5" x2="438.5" y1="1388.89" y2="1388.89"/><text fill="#000000" font-family="sans-serif" font-size="14" lengthAdjust="spacing" textLength="306" x="82.5" y="1405.8851">+Complex(_re: double = 0, _im: double = 0)</text><text fill="#000000" font-family="sans-serif" font-size="14" lengthAdjust="spacing" textLength="227" x="82.5" y="1422.182">+explicit operator double() const</text><text fill="#000000" font-family="sans-serif" font-size="14" lengthAdjust="spacing" textLength="121" x="82.5" y="1438.4789">+getRe(): double</text><text fill="#000000" font-family="sans-serif" font-size="14" lengthAdjust="spacing" textLength="118" x="82.5" y="1454.7757">+getIm(): double</text><text fill="#000000" font-family="sans-serif" font-size="14" lengthAdjust="spacing" textLength="129" x="82.5" y="1471.0726">+unit_sq(): double</text><text fill="#000000" font-family="sans-serif" font-size="14" lengthAdjust="spacing" textLength="104" x="82.5" y="1487.3695">+abs(): double</text><text fill="#000000" font-family="sans-serif" font-size="14" lengthAdjust="spacing" textLength="178" x="82.5" y="1503.6664">+setRe(_re: double): void</text><text fill="#000000" font-family="sans-serif" font-size="14" lengthAdjust="spacing" textLength="177" x="82.5" y="1519.9632">+setIm(_im: double): void</text><text fill="#000000" font-family="sans-serif" font-size="14" lengthAdjust="spacing" textLength="305" x="82.5" y="1536.2601">+operator==(rhs_c: const Complex&amp;): bool</text><text fill="#000000" font-family="sans-serif" font-size="14" lengthAdjust="spacing" textLength="298" x="82.5" y="1552.557">+operator!=(rhs_c: const Complex&amp;): bool</text><text fill="#000000" font-family="sans-serif" font-size="14" lengthAdjust="spacing" textLength="160" x="82.5" y="1568.8539">+"operator"(): Complex</text><text fill="#000000" font-family="sans-serif" font-size="14" lengthAdjust="spacing" textLength="323" x="82.5" y="1585.1507">+operator+(rhs_c: const Complex&amp;): Complex</text><text fill="#000000" font-family="sans-serif" font-size="14" lengthAdjust="spacing" textLength="327" x="82.5" y="1601.4476">+operator+&lt;T&gt;(rhs_type: const T&amp;): Complex</text><text fill="#000000" font-family="sans-serif" font-size="14" lengthAdjust="spacing" textLength="347" x="82.5" y="1617.7445">+operator+=(rhs_c: const Complex&amp;): Complex&amp;</text><text fill="#000000" font-family="sans-serif" font-size="14" lengthAdjust="spacing" textLength="351" x="82.5" y="1634.0414">+operator+=&lt;T&gt;(rhs_type: const T&amp;): Complex&amp;</text><text fill="#000000" font-family="sans-serif" font-size="14" lengthAdjust="spacing" textLength="316" x="82.5" y="1650.3382">+operator-(rhs_c: const Complex&amp;): Complex</text><text fill="#000000" font-family="sans-serif" font-size="14" lengthAdjust="spacing" textLength="320" x="82.5" y="1666.6351">+operator-&lt;T&gt;(rhs_type: const T&amp;): Complex</text><text fill="#000000" font-family="sans-serif" font-size="14" lengthAdjust="spacing" textLength="340" x="82.5" y="1682.932">+operator-=(rhs_c: const Complex&amp;): Complex&amp;</text><text fill="#000000" font-family="sans-serif" font-size="14" lengthAdjust="spacing" textLength="344" x="82.5" y="1699.2289">+operator-=&lt;T&gt;(rhs_type: const T&amp;): Complex&amp;</text><text fill="#000000" font-family="sans-serif" font-size="14" lengthAdjust="spacing" textLength="318" x="82.5" y="1715.5257">+operator*(rhs_c: const Complex&amp;): Complex</text><text fill="#000000" font-family="sans-serif" font-size="14" lengthAdjust="spacing" textLength="322" x="82.5" y="1731.8226">+operator*&lt;T&gt;(rhs_type: const T&amp;): Complex</text><text fill="#000000" font-family="sans-serif" font-size="14" lengthAdjust="spacing" textLength="342" x="82.5" y="1748.1195">+operator*=(rhs_c: const Complex&amp;): Complex&amp;</text><text fill="#000000" font-family="sans-serif" font-size="14" lengthAdjust="spacing" textLength="346" x="82.5" y="1764.4164">+operator*=&lt;T&gt;(rhs_type: const T&amp;): Complex&amp;</text><text fill="#000000" font-family="sans-serif" font-size="14" lengthAdjust="spacing" textLength="316" x="82.5" y="1780.7132">+operator/(rhs_c: const Complex&amp;): Complex</text><text fill="#000000" font-family="sans-serif" font-size="14" lengthAdjust="spacing" textLength="320" x="82.5" y="1797.0101">+operator/&lt;T&gt;(rhs_type: const T&amp;): Complex</text><text fill="#000000" font-family="sans-serif" font-size="14" lengthAdjust="spacing" textLength="340" x="82.5" y="1813.307">+operator/=(rhs_c: const Complex&amp;): Complex&amp;</text><text fill="#000000" font-family="sans-serif" font-size="14" lengthAdjust="spacing" textLength="344" x="82.5" y="1829.6039">+operator/=&lt;T&gt;(rhs_type: const T&amp;): Complex&amp;</text></g><!--class __MatrixState--><g id="elem___MatrixState"><rect codeLine="77" fill="#F1F1F1" height="96.8906" id="__MatrixState" rx="5" ry="5" style="stroke:#181818;stroke-width:0.5;" width="122" x="2711" y="980.14"/><ellipse cx="2726" cy="996.14" fill="#EB937F" rx="11" ry="11" style="stroke:#181818;stroke-width:1.0;"/><path d="M2730.1094,1002.14 L2722.3906,1002.14 L2722.3906,989.7494 L2730.1094,989.7494 L2730.1094,991.9056 L2724.8438,991.9056 L2724.8438,994.5775 L2729.6094,994.5775 L2729.6094,996.7338 L2724.8438,996.7338 L2724.8438,999.9838 L2730.1094,999.9838 L2730.1094,1002.14 Z " fill="#000000"/><text fill="#000000" font-family="sans-serif" font-size="14" lengthAdjust="spacing" textLength="90" x="2740" y="1000.9867">__MatrixState</text><line style="stroke:#181818;stroke-width:0.5;" x1="2712" x2="2832" y1="1012.14" y2="1012.14"/><text fill="#000000" font-family="sans-serif" font-size="14" lengthAdjust="spacing" textLength="74" x="2717" y="1029.1351">FixedStack</text><text fill="#000000" font-family="sans-serif" font-size="14" lengthAdjust="spacing" textLength="72" x="2717" y="1045.432">FixedHeap</text><text fill="#000000" font-family="sans-serif" font-size="14" lengthAdjust="spacing" textLength="95" x="2717" y="1061.7289">DynamicHeap</text><line style="stroke:#181818;stroke-width:0.5;" x1="2712" x2="2832" y1="1069.0306" y2="1069.0306"/></g><!--class Matrix--><g id="elem_Matrix"><rect codeLine="83" fill="#F1F1F1" height="667.2813" id="Matrix" rx="5" ry="5" style="stroke:#181818;stroke-width:0.5;" width="479" x="1885.5" y="41"/><ellipse cx="2095.25" cy="57" fill="#ADD1B2" rx="11" ry="11" style="stroke:#181818;stroke-width:1.0;"/><path d="M2098.2188,62.6406 Q2097.6406,62.9375 2097,63.0781 Q2096.3594,63.2344 2095.6563,63.2344 Q2093.1563,63.2344 2091.8281,61.5938 Q2090.5156,59.9375 2090.5156,56.8125 Q2090.5156,53.6875 2091.8281,52.0313 Q2093.1563,50.375 2095.6563,50.375 Q2096.3594,50.375 2097,50.5313 Q2097.6563,50.6875 2098.2188,50.9844 L2098.2188,53.7031 Q2097.5938,53.125 2097,52.8594 Q2096.4063,52.5781 2095.7813,52.5781 Q2094.4375,52.5781 2093.75,53.6563 Q2093.0625,54.7188 2093.0625,56.8125 Q2093.0625,58.9063 2093.75,59.9844 Q2094.4375,61.0469 2095.7813,61.0469 Q2096.4063,61.0469 2097,60.7813 Q2097.5938,60.5 2098.2188,59.9219 L2098.2188,62.6406 Z " fill="#000000"/><text fill="#000000" font-family="sans-serif" font-size="14" lengthAdjust="spacing" textLength="40" x="2115.75" y="61.8467">Matrix</text><rect fill="#FFFFFF" height="15.9688" style="stroke:#181818;stroke-width:1.0;stroke-dasharray:2.0,2.0;" width="9" x="2358.5" y="38"/><text fill="#000000" font-family="sans-serif" font-size="12" font-style="italic" lengthAdjust="spacing" textLength="7" x="2359.5" y="50.1387">T</text><line style="stroke:#181818;stroke-width:0.5;" x1="1886.5" x2="2363.5" y1="73" y2="73"/><text fill="#000000" font-family="sans-serif" font-size="14" lengthAdjust="spacing" textLength="111" x="1891.5" y="89.9951">-staticBuf: T[25]</text><text fill="#000000" font-family="sans-serif" font-size="14" lengthAdjust="spacing" textLength="60" x="1891.5" y="106.292">-data: T*</text><text fill="#000000" font-family="sans-serif" font-size="14" lengthAdjust="spacing" textLength="63" x="1891.5" y="122.5889">-n: size_t</text><text fill="#000000" font-family="sans-serif" font-size="14" lengthAdjust="spacing" textLength="67" x="1891.5" y="138.8857">-m: size_t</text><text fill="#000000" font-family="sans-serif" font-size="14" lengthAdjust="spacing" textLength="192" x="1891.5" y="155.1826">-dataLocation: __MatrixState</text><line style="stroke:#181818;stroke-width:0.5;" x1="1886.5" x2="2363.5" y1="162.4844" y2="162.4844"/><text fill="#000000" font-family="sans-serif" font-size="14" lengthAdjust="spacing" textLength="163" x="1891.5" y="179.4795">-swap(a: T*, b: T*): void</text><text fill="#000000" font-family="sans-serif" font-size="14" lengthAdjust="spacing" textLength="467" x="1891.5" y="195.7764">-exact_size(matA: const Matrix&lt;T&gt;&amp;, matB: const Matrix&lt;T&gt;): bool</text><text fill="#000000" font-family="sans-serif" font-size="14" lengthAdjust="spacing" textLength="262" x="1891.5" y="212.0732">+Matrix(_n: size_t = 0, _m: size_t = 0)</text><text fill="#000000" font-family="sans-serif" font-size="14" lengthAdjust="spacing" textLength="203" x="1891.5" y="228.3701">+Matrix(other: const Matrix&amp;)</text><text fill="#000000" font-family="sans-serif" font-size="14" lengthAdjust="spacing" textLength="295" x="1891.5" y="244.667">+operator=(other: const Matrix&amp;): Matrix&amp;</text><text fill="#000000" font-family="sans-serif" font-size="14" lengthAdjust="spacing" textLength="172" x="1891.5" y="260.9639">+Matrix(other: Matrix&amp;&amp;)</text><text fill="#000000" font-family="sans-serif" font-size="14" lengthAdjust="spacing" textLength="264" x="1891.5" y="277.2607">+operator=(other: Matrix&amp;&amp;): Matrix&amp;</text><text fill="#000000" font-family="sans-serif" font-size="14" lengthAdjust="spacing" textLength="288" x="1891.5" y="293.5576">+"operator&lt;&lt;"(val: const S&amp;): CommaInit</text><text fill="#000000" font-family="sans-serif" font-size="14" lengthAdjust="spacing" textLength="132" x="1891.5" y="309.8545">+getRows(): size_t</text><text fill="#000000" font-family="sans-serif" font-size="14" lengthAdjust="spacing" textLength="124" x="1891.5" y="326.1514">+getCols(): size_t</text><text fill="#000000" font-family="sans-serif" font-size="14" lengthAdjust="spacing" textLength="99" x="1891.5" y="342.4482">+size(): size_t</text><text fill="#000000" font-family="sans-serif" font-size="14" lengthAdjust="spacing" textLength="234" x="1891.5" y="358.7451">+getDataLocation(): __MatrixState</text><text fill="#000000" font-family="sans-serif" font-size="14" lengthAdjust="spacing" textLength="444" x="1891.5" y="375.042">+operator()(row: const size_t, col: const size_t) const: const T&amp;</text><text fill="#000000" font-family="sans-serif" font-size="14" lengthAdjust="spacing" textLength="358" x="1891.5" y="391.3389">+operator()(row: const size_t, col: const size_t): T&amp;</text><text fill="#000000" font-family="sans-serif" font-size="14" lengthAdjust="spacing" textLength="285" x="1891.5" y="407.6357">+operator==(other: const Matrix&amp;): bool</text><text fill="#000000" font-family="sans-serif" font-size="14" lengthAdjust="spacing" textLength="92" x="1891.5" y="423.9326">+begin(): iter</text><text fill="#000000" font-family="sans-serif" font-size="14" lengthAdjust="spacing" textLength="80" x="1891.5" y="440.2295">+end(): iter</text><text fill="#000000" font-family="sans-serif" font-size="14" lengthAdjust="spacing" textLength="189" x="1891.5" y="456.5264">+cbegin() const: const_iter</text><text fill="#000000" font-family="sans-serif" font-size="14" lengthAdjust="spacing" textLength="177" x="1891.5" y="472.8232">+cend() const: const_iter</text><text fill="#000000" font-family="sans-serif" font-size="14" lengthAdjust="spacing" textLength="291" x="1891.5" y="489.1201">+swapRow(n1: size_t, n2: size_t): Matrix&amp;</text><text fill="#000000" font-family="sans-serif" font-size="14" lengthAdjust="spacing" textLength="291" x="1891.5" y="505.417">+swapCol(m1: size_t, m2: size_t): Matrix&amp;</text><text fill="#000000" font-family="sans-serif" font-size="14" lengthAdjust="spacing" textLength="243" x="1891.5" y="521.7139">+resize(_n: size_t, _m: size_t): void</text><text fill="#000000" font-family="sans-serif" font-size="14" lengthAdjust="spacing" textLength="343" x="1891.5" y="538.0107">+operator+(rhs_mtx: const Matrix&amp;) const: Matrix</text><text fill="#000000" font-family="sans-serif" font-size="14" lengthAdjust="spacing" textLength="324" x="1891.5" y="554.3076">+operator+=(rhs_mtx: const Matrix&amp;): Matrix&amp;</text><text fill="#000000" font-family="sans-serif" font-size="14" lengthAdjust="spacing" textLength="336" x="1891.5" y="570.6045">+operator-(rhs_mtx: const Matrix&amp;) const: Matrix</text><text fill="#000000" font-family="sans-serif" font-size="14" lengthAdjust="spacing" textLength="317" x="1891.5" y="586.9014">+operator-=(rhs_mtx: const Matrix&amp;): Matrix&amp;</text><text fill="#000000" font-family="sans-serif" font-size="14" lengthAdjust="spacing" textLength="338" x="1891.5" y="603.1982">+operator*(rhs_mtx: const Matrix&amp;) const: Matrix</text><text fill="#000000" font-family="sans-serif" font-size="14" lengthAdjust="spacing" textLength="347" x="1891.5" y="619.4951">+operator*(rhs_vec: const Vector&amp;) const: Vector</text><text fill="#000000" font-family="sans-serif" font-size="14" lengthAdjust="spacing" textLength="319" x="1891.5" y="635.792">+operator*=(rhs_mtx: const Matrix&amp;): Matrix&amp;</text><text fill="#000000" font-family="sans-serif" font-size="14" lengthAdjust="spacing" textLength="323" x="1891.5" y="652.0889">+operator*=(rhs_vec: const Vector&amp;): Matrix&amp;</text><text fill="#000000" font-family="sans-serif" font-size="14" lengthAdjust="spacing" textLength="178" x="1891.5" y="668.3857">+transposeInPlace(): void</text><text fill="#000000" font-family="sans-serif" font-size="14" lengthAdjust="spacing" textLength="184" x="1891.5" y="684.6826">+transpose() const: Matrix</text><text fill="#000000" font-family="sans-serif" font-size="14" lengthAdjust="spacing" textLength="164" x="1891.5" y="700.9795">+inverse() const: Matrix</text></g><!--class MatrixCommaInit--><g id="elem_MatrixCommaInit"><rect codeLine="124" fill="#F1F1F1" height="113.1875" id="MatrixCommaInit" rx="5" ry="5" style="stroke:#181818;stroke-width:0.5;" width="334" x="2342" y="972"/><ellipse cx="2426.75" cy="988" fill="#ADD1B2" rx="11" ry="11" style="stroke:#181818;stroke-width:1.0;"/><path d="M2429.7188,993.6406 Q2429.1406,993.9375 2428.5,994.0781 Q2427.8594,994.2344 2427.1563,994.2344 Q2424.6563,994.2344 2423.3281,992.5938 Q2422.0156,990.9375 2422.0156,987.8125 Q2422.0156,984.6875 2423.3281,983.0313 Q2424.6563,981.375 2427.1563,981.375 Q2427.8594,981.375 2428.5,981.5313 Q2429.1563,981.6875 2429.7188,981.9844 L2429.7188,984.7031 Q2429.0938,984.125 2428.5,983.8594 Q2427.9063,983.5781 2427.2813,983.5781 Q2425.9375,983.5781 2425.25,984.6563 Q2424.5625,985.7188 2424.5625,987.8125 Q2424.5625,989.9063 2425.25,990.9844 Q2425.9375,992.0469 2427.2813,992.0469 Q2427.9063,992.0469 2428.5,991.7813 Q2429.0938,991.5 2429.7188,990.9219 L2429.7188,993.6406 Z " fill="#000000"/><text fill="#000000" font-family="sans-serif" font-size="14" lengthAdjust="spacing" textLength="156" x="2447.25" y="992.8467">Matrix&lt;T&gt;::CommaInit</text><line style="stroke:#181818;stroke-width:0.5;" x1="2343" x2="2675" y1="1004" y2="1004"/><text fill="#000000" font-family="sans-serif" font-size="14" lengthAdjust="spacing" textLength="124" x="2348" y="1020.9951">-mtx: Matrix&lt;T&gt;&amp;</text><text fill="#000000" font-family="sans-serif" font-size="14" lengthAdjust="spacing" textLength="103" x="2348" y="1037.292">-nextidx: size_t</text><line style="stroke:#181818;stroke-width:0.5;" x1="2343" x2="2675" y1="1044.5938" y2="1044.5938"/><text fill="#000000" font-family="sans-serif" font-size="14" lengthAdjust="spacing" textLength="322" x="2348" y="1061.5889">+CommaInit(_mtx: Matrix&lt;T&gt;&amp;, init: const S&amp;)</text><text fill="#000000" font-family="sans-serif" font-size="14" lengthAdjust="spacing" textLength="309" x="2348" y="1077.8857">+"operator,"(rhs_val: const S&amp;): CommaInit&amp;</text></g><!--class Vector--><g id="elem_Vector"><rect codeLine="131" fill="#F1F1F1" height="520.6094" id="Vector" rx="5" ry="5" style="stroke:#181818;stroke-width:0.5;" width="364" x="1943" y="768.28"/><ellipse cx="2092.75" cy="784.28" fill="#ADD1B2" rx="11" ry="11" style="stroke:#181818;stroke-width:1.0;"/><path d="M2095.7188,789.9206 Q2095.1406,790.2175 2094.5,790.3581 Q2093.8594,790.5144 2093.1563,790.5144 Q2090.6563,790.5144 2089.3281,788.8738 Q2088.0156,787.2175 2088.0156,784.0925 Q2088.0156,780.9675 2089.3281,779.3113 Q2090.6563,777.655 2093.1563,777.655 Q2093.8594,777.655 2094.5,777.8113 Q2095.1563,777.9675 2095.7188,778.2644 L2095.7188,780.9831 Q2095.0938,780.405 2094.5,780.1394 Q2093.9063,779.8581 2093.2813,779.8581 Q2091.9375,779.8581 2091.25,780.9363 Q2090.5625,781.9988 2090.5625,784.0925 Q2090.5625,786.1863 2091.25,787.2644 Q2091.9375,788.3269 2093.2813,788.3269 Q2093.9063,788.3269 2094.5,788.0613 Q2095.0938,787.78 2095.7188,787.2019 L2095.7188,789.9206 Z " fill="#000000"/><text fill="#000000" font-family="sans-serif" font-size="14" lengthAdjust="spacing" textLength="45" x="2113.25" y="789.1267">Vector</text><rect fill="#FFFFFF" height="15.9688" style="stroke:#181818;stroke-width:1.0;stroke-dasharray:2.0,2.0;" width="9" x="2301" y="765.28"/><text fill="#000000" font-family="sans-serif" font-size="12" font-style="italic" lengthAdjust="spacing" textLength="7" x="2302" y="777.4187">T</text><line style="stroke:#181818;stroke-width:0.5;" x1="1944" x2="2306" y1="800.28" y2="800.28"/><text fill="#000000" font-family="sans-serif" font-size="14" lengthAdjust="spacing" textLength="60" x="1949" y="817.2751">-data: T*</text><text fill="#000000" font-family="sans-serif" font-size="14" lengthAdjust="spacing" textLength="89" x="1949" y="833.572">-_size: size_t</text><text fill="#000000" font-family="sans-serif" font-size="14" lengthAdjust="spacing" textLength="117" x="1949" y="849.8689">-_capacity: size_t</text><line style="stroke:#181818;stroke-width:0.5;" x1="1944" x2="2306" y1="857.1706" y2="857.1706"/><text fill="#000000" font-family="sans-serif" font-size="14" lengthAdjust="spacing" textLength="154" x="1949" y="874.1657">+Vector(n: size_t = 1)</text><text fill="#000000" font-family="sans-serif" font-size="14" lengthAdjust="spacing" textLength="348" x="1949" y="890.4626">+Vector(mtx: const Matrix&lt;T&gt;&amp;, idx: const size_t)</text><text fill="#000000" font-family="sans-serif" font-size="14" lengthAdjust="spacing" textLength="213" x="1949" y="906.7595">+Vector(other: const Vector&amp;)</text><text fill="#000000" font-family="sans-serif" font-size="14" lengthAdjust="spacing" textLength="182" x="1949" y="923.0564">+Vector(other: Vector&amp;&amp;)</text><text fill="#000000" font-family="sans-serif" font-size="14" lengthAdjust="spacing" textLength="168" x="1949" y="939.3532">+operator Matrix() const</text><text fill="#000000" font-family="sans-serif" font-size="14" lengthAdjust="spacing" textLength="305" x="1949" y="955.6501">+operator=(other: const Vector&amp;): Vector&amp;</text><text fill="#000000" font-family="sans-serif" font-size="14" lengthAdjust="spacing" textLength="274" x="1949" y="971.947">+operator=(other: Vector&amp;&amp;): Vector&amp;</text><text fill="#000000" font-family="sans-serif" font-size="14" lengthAdjust="spacing" textLength="288" x="1949" y="988.2439">+"operator&lt;&lt;"(val: const S&amp;): CommaInit</text><text fill="#000000" font-family="sans-serif" font-size="14" lengthAdjust="spacing" textLength="99" x="1949" y="1004.5407">+size(): size_t</text><text fill="#000000" font-family="sans-serif" font-size="14" lengthAdjust="spacing" textLength="127" x="1949" y="1020.8376">+capacity(): size_t</text><text fill="#000000" font-family="sans-serif" font-size="14" lengthAdjust="spacing" textLength="318" x="1949" y="1037.1345">+operator[](idx: const size_t) const: const T&amp;</text><text fill="#000000" font-family="sans-serif" font-size="14" lengthAdjust="spacing" textLength="232" x="1949" y="1053.4314">+operator[](idx: const size_t): T&amp;</text><text fill="#000000" font-family="sans-serif" font-size="14" lengthAdjust="spacing" textLength="254" x="1949" y="1069.7282">+push_back(val: const T&amp;): Vector&amp;</text><text fill="#000000" font-family="sans-serif" font-size="14" lengthAdjust="spacing" textLength="227" x="1949" y="1086.0251">+resize(ncap: const size_t): void</text><text fill="#000000" font-family="sans-serif" font-size="14" lengthAdjust="spacing" textLength="101" x="1949" y="1102.322">+shrink(): void</text><text fill="#000000" font-family="sans-serif" font-size="14" lengthAdjust="spacing" textLength="84" x="1949" y="1118.6189">+length(): T</text><text fill="#000000" font-family="sans-serif" font-size="14" lengthAdjust="spacing" textLength="349" x="1949" y="1134.9157">+operator==(rhs_vec: const Vector&amp;) const: bool</text><text fill="#000000" font-family="sans-serif" font-size="14" lengthAdjust="spacing" textLength="92" x="1949" y="1151.2126">+begin(): iter</text><text fill="#000000" font-family="sans-serif" font-size="14" lengthAdjust="spacing" textLength="80" x="1949" y="1167.5095">+end(): iter</text><text fill="#000000" font-family="sans-serif" font-size="14" lengthAdjust="spacing" textLength="189" x="1949" y="1183.8064">+cbegin() const: const_iter</text><text fill="#000000" font-family="sans-serif" font-size="14" lengthAdjust="spacing" textLength="177" x="1949" y="1200.1032">+cend() const: const_iter</text><text fill="#000000" font-family="sans-serif" font-size="14" lengthAdjust="spacing" textLength="352" x="1949" y="1216.4001">+operator+(rhs_vec: const Vector&amp;) const: Vector</text><text fill="#000000" font-family="sans-serif" font-size="14" lengthAdjust="spacing" textLength="333" x="1949" y="1232.697">+operator+=(rhs_vec: const Vector&amp;): Vector&amp;</text><text fill="#000000" font-family="sans-serif" font-size="14" lengthAdjust="spacing" textLength="345" x="1949" y="1248.9939">+operator-(rhs_vec: const Vector&amp;) const: Vector</text><text fill="#000000" font-family="sans-serif" font-size="14" lengthAdjust="spacing" textLength="326" x="1949" y="1265.2907">+operator-=(rhs_vec: const Vector&amp;): Vector&amp;</text><text fill="#000000" font-family="sans-serif" font-size="14" lengthAdjust="spacing" textLength="311" x="1949" y="1281.5876">+operator*(rhs_vec: const Vector&amp;) const: T</text></g><!--class VectorCommaInit--><g id="elem_VectorCommaInit"><rect codeLine="163" fill="#F1F1F1" height="96.8906" id="VectorCommaInit" rx="5" ry="5" style="stroke:#181818;stroke-width:0.5;" width="338" x="1956" y="1544.46"/><ellipse cx="2040.25" cy="1560.46" fill="#ADD1B2" rx="11" ry="11" style="stroke:#181818;stroke-width:1.0;"/><path d="M2043.2188,1566.1006 Q2042.6406,1566.3975 2042,1566.5381 Q2041.3594,1566.6944 2040.6563,1566.6944 Q2038.1563,1566.6944 2036.8281,1565.0538 Q2035.5156,1563.3975 2035.5156,1560.2725 Q2035.5156,1557.1475 2036.8281,1555.4913 Q2038.1563,1553.835 2040.6563,1553.835 Q2041.3594,1553.835 2042,1553.9913 Q2042.6563,1554.1475 2043.2188,1554.4444 L2043.2188,1557.1631 Q2042.5938,1556.585 2042,1556.3194 Q2041.4063,1556.0381 2040.7813,1556.0381 Q2039.4375,1556.0381 2038.75,1557.1163 Q2038.0625,1558.1788 2038.0625,1560.2725 Q2038.0625,1562.3663 2038.75,1563.4444 Q2039.4375,1564.5069 2040.7813,1564.5069 Q2041.4063,1564.5069 2042,1564.2413 Q2042.5938,1563.96 2043.2188,1563.3819 L2043.2188,1566.1006 Z " fill="#000000"/><text fill="#000000" font-family="sans-serif" font-size="14" lengthAdjust="spacing" textLength="161" x="2060.75" y="1565.3067">Vector&lt;T&gt;::CommaInit</text><line style="stroke:#181818;stroke-width:0.5;" x1="1957" x2="2293" y1="1576.46" y2="1576.46"/><text fill="#000000" font-family="sans-serif" font-size="14" lengthAdjust="spacing" textLength="128" x="1962" y="1593.4551">-vec: Vector&lt;T&gt;&amp;</text><line style="stroke:#181818;stroke-width:0.5;" x1="1957" x2="2293" y1="1600.7569" y2="1600.7569"/><text fill="#000000" font-family="sans-serif" font-size="14" lengthAdjust="spacing" textLength="326" x="1962" y="1617.752">+CommaInit(_vec: Vector&lt;T&gt;&amp;, init: const S&amp;)</text><text fill="#000000" font-family="sans-serif" font-size="14" lengthAdjust="spacing" textLength="309" x="1962" y="1634.0489">+"operator,"(rhs_val: const S&amp;): CommaInit&amp;</text></g><!--class Matrix_Error--><g id="elem_Matrix_Error"><rect codeLine="169" fill="#F1F1F1" height="145.7813" id="Matrix_Error" rx="5" ry="5" style="stroke:#181818;stroke-width:0.5;" width="478" x="1430" y="955.7"/><ellipse cx="1624.75" cy="971.7" fill="#ADD1B2" rx="11" ry="11" style="stroke:#181818;stroke-width:1.0;"/><path d="M1627.7188,977.3406 Q1627.1406,977.6375 1626.5,977.7781 Q1625.8594,977.9344 1625.1563,977.9344 Q1622.6563,977.9344 1621.3281,976.2938 Q1620.0156,974.6375 1620.0156,971.5125 Q1620.0156,968.3875 1621.3281,966.7313 Q1622.6563,965.075 1625.1563,965.075 Q1625.8594,965.075 1626.5,965.2313 Q1627.1563,965.3875 1627.7188,965.6844 L1627.7188,968.4031 Q1627.0938,967.825 1626.5,967.5594 Q1625.9063,967.2781 1625.2813,967.2781 Q1623.9375,967.2781 1623.25,968.3563 Q1622.5625,969.4188 1622.5625,971.5125 Q1622.5625,973.6063 1623.25,974.6844 Q1623.9375,975.7469 1625.2813,975.7469 Q1625.9063,975.7469 1626.5,975.4813 Q1627.0938,975.2 1627.7188,974.6219 L1627.7188,977.3406 Z " fill="#000000"/><text fill="#000000" font-family="sans-serif" font-size="14" lengthAdjust="spacing" textLength="80" x="1645.25" y="976.5467">Matrix_Error</text><line style="stroke:#181818;stroke-width:0.5;" x1="1431" x2="1907" y1="987.7" y2="987.7"/><text fill="#000000" font-family="sans-serif" font-size="14" lengthAdjust="spacing" textLength="122" x="1436" y="1004.6951">-_src: const char*</text><text fill="#000000" font-family="sans-serif" font-size="14" lengthAdjust="spacing" textLength="131" x="1436" y="1020.992">-_msg: const char*</text><text fill="#000000" font-family="sans-serif" font-size="14" lengthAdjust="spacing" textLength="79" x="1436" y="1037.2889">-_fatal: bool</text><line style="stroke:#181818;stroke-width:0.5;" x1="1431" x2="1907" y1="1044.5906" y2="1044.5906"/><text fill="#000000" font-family="sans-serif" font-size="14" lengthAdjust="spacing" textLength="466" x="1436" y="1061.5857">+Matrix_Error(src: const char*, msg: const char*, fatal: bool = false)</text><text fill="#000000" font-family="sans-serif" font-size="14" lengthAdjust="spacing" textLength="175" x="1436" y="1077.8826">+src() const: const char*</text><text fill="#000000" font-family="sans-serif" font-size="14" lengthAdjust="spacing" textLength="187" x="1436" y="1094.1795">+what() const: const char*</text></g><!--class Vector_Error--><g id="elem_Vector_Error"><rect codeLine="178" fill="#F1F1F1" height="145.7813" id="Vector_Error" rx="5" ry="5" style="stroke:#181818;stroke-width:0.5;" width="483" x="912.5" y="955.7"/><ellipse cx="1107.25" cy="971.7" fill="#ADD1B2" rx="11" ry="11" style="stroke:#181818;stroke-width:1.0;"/><path d="M1110.2188,977.3406 Q1109.6406,977.6375 1109,977.7781 Q1108.3594,977.9344 1107.6563,977.9344 Q1105.1563,977.9344 1103.8281,976.2938 Q1102.5156,974.6375 1102.5156,971.5125 Q1102.5156,968.3875 1103.8281,966.7313 Q1105.1563,965.075 1107.6563,965.075 Q1108.3594,965.075 1109,965.2313 Q1109.6563,965.3875 1110.2188,965.6844 L1110.2188,968.4031 Q1109.5938,967.825 1109,967.5594 Q1108.4063,967.2781 1107.7813,967.2781 Q1106.4375,967.2781 1105.75,968.3563 Q1105.0625,969.4188 1105.0625,971.5125 Q1105.0625,973.6063 1105.75,974.6844 Q1106.4375,975.7469 1107.7813,975.7469 Q1108.4063,975.7469 1109,975.4813 Q1109.5938,975.2 1110.2188,974.6219 L1110.2188,977.3406 Z " fill="#000000"/><text fill="#000000" font-family="sans-serif" font-size="14" lengthAdjust="spacing" textLength="85" x="1127.75" y="976.5467">Vector_Error</text><line style="stroke:#181818;stroke-width:0.5;" x1="913.5" x2="1394.5" y1="987.7" y2="987.7"/><text fill="#000000" font-family="sans-serif" font-size="14" lengthAdjust="spacing" textLength="122" x="918.5" y="1004.6951">-_src: const char*</text><text fill="#000000" font-family="sans-serif" font-size="14" lengthAdjust="spacing" textLength="131" x="918.5" y="1020.992">-_msg: const char*</text><text fill="#000000" font-family="sans-serif" font-size="14" lengthAdjust="spacing" textLength="79" x="918.5" y="1037.2889">-_fatal: bool</text><line style="stroke:#181818;stroke-width:0.5;" x1="913.5" x2="1394.5" y1="1044.5906" y2="1044.5906"/><text fill="#000000" font-family="sans-serif" font-size="14" lengthAdjust="spacing" textLength="471" x="918.5" y="1061.5857">+Vector_Error(src: const char*, msg: const char*, fatal: bool = false)</text><text fill="#000000" font-family="sans-serif" font-size="14" lengthAdjust="spacing" textLength="175" x="918.5" y="1077.8826">+src() const: const char*</text><text fill="#000000" font-family="sans-serif" font-size="14" lengthAdjust="spacing" textLength="187" x="918.5" y="1094.1795">+what() const: const char*</text></g><!--class Hypercomplex--><g id="elem_Hypercomplex"><rect codeLine="7" fill="#F1F1F1" height="64.2969" id="Hypercomplex" rx="5" ry="5" style="stroke:#181818;stroke-width:0.5;" width="144" x="70" y="342.5"/><ellipse cx="91.3" cy="358.5" fill="#ADD1B2" rx="11" ry="11" style="stroke:#181818;stroke-width:1.0;"/><path d="M94.2688,364.1406 Q93.6906,364.4375 93.05,364.5781 Q92.4094,364.7344 91.7063,364.7344 Q89.2063,364.7344 87.8781,363.0938 Q86.5656,361.4375 86.5656,358.3125 Q86.5656,355.1875 87.8781,353.5313 Q89.2063,351.875 91.7063,351.875 Q92.4094,351.875 93.05,352.0313 Q93.7063,352.1875 94.2688,352.4844 L94.2688,355.2031 Q93.6438,354.625 93.05,354.3594 Q92.4563,354.0781 91.8313,354.0781 Q90.4875,354.0781 89.8,355.1563 Q89.1125,356.2188 89.1125,358.3125 Q89.1125,360.4063 89.8,361.4844 Q90.4875,362.5469 91.8313,362.5469 Q92.4563,362.5469 93.05,362.2813 Q93.6438,362 94.2688,361.4219 L94.2688,364.1406 Z " fill="#000000"/><text fill="#000000" font-family="sans-serif" font-size="14" lengthAdjust="spacing" textLength="98" x="106.7" y="363.3467">Hypercomplex</text><line style="stroke:#181818;stroke-width:0.5;" x1="71" x2="213" y1="374.5" y2="374.5"/><line style="stroke:#181818;stroke-width:0.5;" x1="71" x2="213" y1="382.5" y2="382.5"/><text fill="#000000" font-family="sans-serif" font-size="14" font-style="italic" lengthAdjust="spacing" textLength="132" x="76" y="399.4951">+~Hypercomplex()</text></g><!--class Hypercomplex2D--><g id="elem_Hypercomplex2D"><rect codeLine="11" fill="#F1F1F1" height="162.0781" id="Hypercomplex2D" rx="5" ry="5" style="stroke:#181818;stroke-width:0.5;" width="376" x="70" y="947.55"/><ellipse cx="194.75" cy="963.55" fill="#A9DCDF" rx="11" ry="11" style="stroke:#181818;stroke-width:1.0;"/><path d="M194.8594,958.8938 L193.7031,963.9719 L196.0313,963.9719 L194.8594,958.8938 Z M193.375,956.6594 L196.3594,956.6594 L199.7188,969.05 L197.2656,969.05 L196.5,965.9875 L193.2188,965.9875 L192.4688,969.05 L190.0313,969.05 L193.375,956.6594 Z " fill="#000000"/><text fill="#000000" font-family="sans-serif" font-size="14" font-style="italic" lengthAdjust="spacing" textLength="118" x="215.25" y="968.3967">Hypercomplex2D</text><line style="stroke:#181818;stroke-width:0.5;" x1="71" x2="445" y1="979.55" y2="979.55"/><text fill="#000000" font-family="sans-serif" font-size="14" lengthAdjust="spacing" textLength="83" x="76" y="996.5451">#re: double</text><text fill="#000000" font-family="sans-serif" font-size="14" lengthAdjust="spacing" textLength="85" x="76" y="1012.842">#im: double</text><line style="stroke:#181818;stroke-width:0.5;" x1="71" x2="445" y1="1020.1438" y2="1020.1438"/><text fill="#000000" font-family="sans-serif" font-size="14" lengthAdjust="spacing" textLength="364" x="76" y="1037.1389">+Hypercomplex2D(_re: double = 0, _im: double = 0)</text><text fill="#000000" font-family="sans-serif" font-size="14" lengthAdjust="spacing" textLength="104" x="76" y="1053.4357">+real(): double</text><text fill="#000000" font-family="sans-serif" font-size="14" lengthAdjust="spacing" textLength="122" x="76" y="1069.7326">+unreal(): double</text><text fill="#000000" font-family="sans-serif" font-size="14" font-style="italic" lengthAdjust="spacing" textLength="104" x="76" y="1086.0295">+abs(): double</text><text fill="#000000" font-family="sans-serif" font-size="14" font-style="italic" lengthAdjust="spacing" textLength="129" x="76" y="1102.3264">+unit_sq(): double</text></g><!--class genMatrix_Error--><g id="elem_genMatrix_Error"><rect codeLine="21" fill="#F1F1F1" height="80.5938" id="genMatrix_Error" rx="5" ry="5" style="stroke:#181818;stroke-width:0.5;" width="199" x="249.5" y="334.35"/><ellipse cx="291.5" cy="350.35" fill="#B4A7E5" rx="11" ry="11" style="stroke:#181818;stroke-width:1.0;"/><path d="M287.4219,346.1156 L287.4219,343.9594 L294.8125,343.9594 L294.8125,346.1156 L292.3438,346.1156 L292.3438,354.1938 L294.8125,354.1938 L294.8125,356.35 L287.4219,356.35 L287.4219,354.1938 L289.8906,354.1938 L289.8906,346.1156 L287.4219,346.1156 Z " fill="#000000"/><text fill="#000000" font-family="sans-serif" font-size="14" font-style="italic" lengthAdjust="spacing" textLength="107" x="311.5" y="355.1967">genMatrix_Error</text><line style="stroke:#181818;stroke-width:0.5;" x1="250.5" x2="447.5" y1="366.35" y2="366.35"/><line style="stroke:#181818;stroke-width:0.5;" x1="250.5" x2="447.5" y1="374.35" y2="374.35"/><text fill="#000000" font-family="sans-serif" font-size="14" font-style="italic" lengthAdjust="spacing" textLength="175" x="255.5" y="391.3451">+src() const: const char*</text><text fill="#000000" font-family="sans-serif" font-size="14" font-style="italic" lengthAdjust="spacing" textLength="187" x="255.5" y="407.642">+what() const: const char*</text></g><!--class RandomIterator--><g id="elem_RandomIterator"><rect codeLine="26" fill="#F1F1F1" height="259.8594" id="RandomIterator" rx="5" ry="5" style="stroke:#181818;stroke-width:0.5;" width="373" x="483.5" y="244.71"/><ellipse cx="590.75" cy="260.71" fill="#ADD1B2" rx="11" ry="11" style="stroke:#181818;stroke-width:1.0;"/><path d="M593.7188,266.3506 Q593.1406,266.6475 592.5,266.7881 Q591.8594,266.9444 591.1563,266.9444 Q588.6563,266.9444 587.3281,265.3038 Q586.0156,263.6475 586.0156,260.5225 Q586.0156,257.3975 587.3281,255.7413 Q588.6563,254.085 591.1563,254.085 Q591.8594,254.085 592.5,254.2413 Q593.1563,254.3975 593.7188,254.6944 L593.7188,257.4131 Q593.0938,256.835 592.5,256.5694 Q591.9063,256.2881 591.2813,256.2881 Q589.9375,256.2881 589.25,257.3663 Q588.5625,258.4288 588.5625,260.5225 Q588.5625,262.6163 589.25,263.6944 Q589.9375,264.7569 591.2813,264.7569 Q591.9063,264.7569 592.5,264.4913 Q593.0938,264.21 593.7188,263.6319 L593.7188,266.3506 Z " fill="#000000"/><text fill="#000000" font-family="sans-serif" font-size="14" lengthAdjust="spacing" textLength="107" x="611.25" y="265.5567">RandomIterator</text><rect fill="#FFFFFF" height="15.9688" style="stroke:#181818;stroke-width:1.0;stroke-dasharray:2.0,2.0;" width="41" x="818.5" y="241.71"/><text fill="#000000" font-family="sans-serif" font-size="12" font-style="italic" lengthAdjust="spacing" textLength="39" x="819.5" y="253.8487">T, P, R</text><line style="stroke:#181818;stroke-width:0.5;" x1="484.5" x2="855.5" y1="276.71" y2="276.71"/><text fill="#000000" font-family="sans-serif" font-size="14" lengthAdjust="spacing" textLength="42" x="489.5" y="293.7051">-ptr: P</text><line style="stroke:#181818;stroke-width:0.5;" x1="484.5" x2="855.5" y1="301.0069" y2="301.0069"/><text fill="#000000" font-family="sans-serif" font-size="14" lengthAdjust="spacing" textLength="236" x="489.5" y="318.002">+RandomIterator(_ptr: P = nullptr)</text><text fill="#000000" font-family="sans-serif" font-size="14" lengthAdjust="spacing" textLength="150" x="489.5" y="334.2989">+operator*() const: R</text><text fill="#000000" font-family="sans-serif" font-size="14" lengthAdjust="spacing" textLength="159" x="489.5" y="350.5957">+operator-&gt;() const: P</text><text fill="#000000" font-family="sans-serif" font-size="14" lengthAdjust="spacing" textLength="262" x="489.5" y="366.8926">+operator[](rhs_diff: ptrdiff_t) const: R</text><text fill="#000000" font-family="sans-serif" font-size="14" lengthAdjust="spacing" textLength="233" x="489.5" y="383.1895">+operator++(): RandomIterator&amp;</text><text fill="#000000" font-family="sans-serif" font-size="14" lengthAdjust="spacing" textLength="238" x="489.5" y="399.4864">+operator++(int): RandomIterator</text><text fill="#000000" font-family="sans-serif" font-size="14" lengthAdjust="spacing" textLength="219" x="489.5" y="415.7832">+operator--(): RandomIterator&amp;</text><text fill="#000000" font-family="sans-serif" font-size="14" lengthAdjust="spacing" textLength="224" x="489.5" y="432.0801">+operator--(int): RandomIterator</text><text fill="#000000" font-family="sans-serif" font-size="14" lengthAdjust="spacing" textLength="361" x="489.5" y="448.377">+operator+(rhs_diff: ptrdiff_t) const: RandomIterator</text><text fill="#000000" font-family="sans-serif" font-size="14" lengthAdjust="spacing" textLength="354" x="489.5" y="464.6739">+operator-(rhs_diff: ptrdiff_t) const: RandomIterator</text><text fill="#000000" font-family="sans-serif" font-size="14" lengthAdjust="spacing" textLength="342" x="489.5" y="480.9707">+operator+=(rhs_diff: ptrdiff_t): RandomIterator&amp;</text><text fill="#000000" font-family="sans-serif" font-size="14" lengthAdjust="spacing" textLength="335" x="489.5" y="497.2676">+operator-=(rhs_diff: ptrdiff_t): RandomIterator&amp;</text></g><!--reverse link Hypercomplex to Hypercomplex2D--><g id="link_Hypercomplex_Hypercomplex2D"><path codeLine="42" d="M150.7448,424.8114 C168.0648,522.1014 217.97,802.61 243.71,947.26 " fill="none" id="Hypercomplex-backto-Hypercomplex2D" style="stroke:#181818;stroke-width:1.0;"/><polygon fill="none" points="147.59,407.09,144.8377,425.863,156.652,423.7598,147.59,407.09" style="stroke:#181818;stroke-width:1.0;"/></g><!--reverse link Matrix to MatrixCommaInit--><g id="link_Matrix_MatrixCommaInit"><path codeLine="187" d="M2327.3104,719.1196 C2387.2504,820.8796 2440.55,911.38 2476.01,971.58 " fill="none" id="Matrix-backto-MatrixCommaInit" style="stroke:#181818;stroke-width:1.0;"/><polygon fill="#181818" points="2321.22,708.78,2320.8186,715.9799,2327.3104,719.1196,2327.7117,711.9197,2321.22,708.78" style="stroke:#181818;stroke-width:1.0;"/></g><!--reverse link Vector to VectorCommaInit--><g id="link_Vector_VectorCommaInit"><path codeLine="188" d="M2125,1301.35 C2125,1398.33 2125,1486.72 2125,1544.01 " fill="none" id="Vector-backto-VectorCommaInit" style="stroke:#181818;stroke-width:1.0;"/><polygon fill="#181818" points="2125,1289.35,2121,1295.35,2125,1301.35,2129,1295.35,2125,1289.35" style="stroke:#181818;stroke-width:1.0;"/></g><!--link Matrix to Vector--><g id="link_Matrix_Vector"><path codeLine="189" d="M2111.88,708.78 C2111.89,728.69 2111.924,742.5702 2112.074,762.1202 " fill="none" id="Matrix-to-Vector" style="stroke:#181818;stroke-width:1.0;stroke-dasharray:7.0,7.0;"/><polygon fill="#181818" points="2112.12,768.12,2116.0508,759.0896,2112.0816,763.1201,2108.0511,759.151,2112.12,768.12" style="stroke:#181818;stroke-width:1.0;"/></g><!--reverse link Matrix to Vector--><g id="link_Matrix_Vector"><path codeLine="190" d="M2138.117,714.78 C2138.107,734.69 2138.03,748.57 2137.88,768.12 " fill="none" id="Matrix-backto-Vector" style="stroke:#181818;stroke-width:1.0;stroke-dasharray:7.0,7.0;"/><polygon fill="#181818" points="2138.12,708.78,2134.12,717.78,2138.12,713.78,2142.12,717.78,2138.12,708.78" style="stroke:#181818;stroke-width:1.0;"/></g><!--link Matrix to __MatrixState--><g id="link_Matrix___MatrixState"><path codeLine="191" d="M2375.0747,498.0103 C2489.5347,564.5403 2609.3,651.99 2694,768.28 C2740.64,832.32 2758.8587,918.4451 2766.4287,973.9151 " fill="none" id="Matrix-__MatrixState" style="stroke:#181818;stroke-width:1.0;"/><polygon fill="#181818" points="2364.7,491.98,2367.8773,498.4534,2375.0747,498.0103,2371.8975,491.5369,2364.7,491.98" style="stroke:#181818;stroke-width:1.0;"/><polygon fill="#181818" points="2767.24,979.86,2769.9863,970.4018,2766.5639,974.9059,2762.0598,971.4835,2767.24,979.86" style="stroke:#181818;stroke-width:1.0;"/></g><!--link Matrix to Matrix_Error--><g id="link_Matrix_Matrix_Error"><path codeLine="193" d="M1891.99,708.78 C1826.84,801.92 1765.6787,889.3632 1722.9187,950.5032 " fill="none" id="Matrix-to-Matrix_Error" style="stroke:#181818;stroke-width:1.0;stroke-dasharray:7.0,7.0;"/><polygon fill="#181818" points="1719.48,955.42,1727.916,950.3372,1722.3456,951.3226,1721.3602,945.7523,1719.48,955.42" style="stroke:#181818;stroke-width:1.0;"/></g><!--link MatrixCommaInit to Matrix_Error--><g id="link_MatrixCommaInit_Matrix_Error"><path codeLine="194" d="M2488.6,971.74 C2460.16,902.1 2401.27,787.34 2307.5,738.28 C2235.63,700.68 2016.97,706.13 1942.5,738.28 C1840.79,782.2 1762.6913,879.6165 1715.9413,950.2565 " fill="none" id="MatrixCommaInit-to-Matrix_Error" style="stroke:#181818;stroke-width:1.0;stroke-dasharray:7.0,7.0;"/><polygon fill="#181818" points="1712.63,955.26,1720.9327,949.9623,1715.3895,951.0904,1714.2614,945.5472,1712.63,955.26" style="stroke:#181818;stroke-width:1.0;"/></g><!--link Vector to Vector_Error--><g id="link_Vector_Vector_Error"><path codeLine="195" d="M1954.65,767.9 C1940.18,756.51 1924.8,746.46 1908.5,738.28 C1860.93,714.42 1478.4,717.28 1429.5,738.28 C1327.36,782.17 1248.6026,879.6106 1201.4126,950.2606 " fill="none" id="Vector-to-Vector_Error" style="stroke:#181818;stroke-width:1.0;stroke-dasharray:7.0,7.0;"/><polygon fill="#181818" points="1198.08,955.25,1206.4051,949.9877,1200.8572,951.0922,1199.7527,945.5442,1198.08,955.25" style="stroke:#181818;stroke-width:1.0;"/></g><!--reverse link Hypercomplex2D to Complex--><g id="link_Hypercomplex2D_Complex"><path codeLine="198" d="M258,1127.86 C258,1190.44 258,1262.83 258,1348.46 " fill="none" id="Hypercomplex2D-backto-Complex" style="stroke:#181818;stroke-width:1.0;"/><polygon fill="none" points="258,1109.86,252,1127.86,264,1127.86,258,1109.86" style="stroke:#181818;stroke-width:1.0;"/></g><!--reverse link RandomIterator to Matrix--><g id="link_RandomIterator_Matrix"><path codeLine="199" d="M862.85,374.64 C1205.58,374.64 1542.32,374.64 1885.05,374.64 " fill="none" id="RandomIterator-backto-Matrix" style="stroke:#181818;stroke-width:1.0;stroke-dasharray:7.0,7.0;"/><polygon fill="#181818" points="856.85,374.64,865.85,378.64,861.85,374.64,865.85,370.64,856.85,374.64" style="stroke:#181818;stroke-width:1.0;"/></g><!--reverse link RandomIterator to Vector--><g id="link_RandomIterator_Vector"><path codeLine="200" d="M711.9761,510.5897 C741.4861,583.3097 787.33,662.82 861,708.28 C1062.72,832.77 1716.43,657.51 1926,768.28 C1931.64,771.27 1937.18,774.49 1942.6,777.92 " fill="none" id="RandomIterator-backto-Vector" style="stroke:#181818;stroke-width:1.0;stroke-dasharray:7.0,7.0;"/><polygon fill="#181818" points="709.72,505.03,709.3978,514.8736,711.6001,509.6631,716.8106,511.8654,709.72,505.03" style="stroke:#181818;stroke-width:1.0;"/></g><!--reverse link genMatrix_Error to Matrix_Error--><g id="link_genMatrix_Error_Matrix_Error"><path codeLine="202" d="M350.7108,433.4154 C354.4708,505.2554 372.77,637.72 466,708.28 C634.13,835.55 1221.11,680.85 1413,768.28 C1501.22,808.48 1575.56,893.48 1621.02,955.23 " fill="none" id="genMatrix_Error-backto-Matrix_Error" style="stroke:#181818;stroke-width:1.0;"/><polygon fill="none" points="349.77,415.44,344.719,433.729,356.7026,433.1018,349.77,415.44" style="stroke:#181818;stroke-width:1.0;"/></g><!--reverse link genMatrix_Error to Vector_Error--><g id="link_genMatrix_Error_Vector_Error"><path codeLine="203" d="M351.6015,433.2192 C356.3815,504.0792 376.02,634.1 466,708.28 C607.08,824.6 708.03,689.44 873,768.28 C963.89,811.72 1045.76,894.78 1097.37,955.22 " fill="none" id="genMatrix_Error-backto-Vector_Error" style="stroke:#181818;stroke-width:1.0;"/><polygon fill="none" points="350.39,415.26,345.6151,433.623,357.5879,432.8154,350.39,415.26" style="stroke:#181818;stroke-width:1.0;"/></g><!--SRC=[pLbPRziu47xth-2wW24VSWvWNmJRGDjqqG2xG90O-r8K0YtHjX29qb9qx6mt_Uqx4dLG5Eb3HO7c8RPclhb8wXkIJfy3cc268-I5E4tVSyw2rOwJUo-cJy6_15ttqWgomjxpXiKxwd-CmvYX_JRWHDBdAYzcb31qSzthKHoHDC4UGHj2_yBW-Z0DA2UCud3ANnEIecyz17_vlpm1z1d4p8kZ92I7GflzZT4tl4evmnv_Gzzba3NCGM-z_AC4QRpTtad-tY567EJ7krL8964GjOHZnOdbrfPeZgudoAsjCi5GCcK4XzPGutD7ZIgfKFXs2hAZ0NVJVnHOCHhvOAyR4-1-OWocpZ2oAVEi8OAvJxaZFf2tnMoaH- -tc9lXHGvY8lgFcFfnT0_vO1wpsNA27YReST57E4LDdPIRZHBE7FGWXMzYBLS0ODpfBWpXGHxzE16eKPtaeqPjBshzWqR_vQl5jgdh1-kraoMKVN7vKPVZSJOXpLm7UXpCKGkgIz8-poFWplGuFbxLoOH-p7myrzgVLU8bfiKgRD3Ax3_RLjxgtfkMhc0jIelueuQM2jb5h40EIHXu0QygAd3bCfIW6y8VYPO3G7CV6RX5Hmb2PsAKD8yZ5G6WbpZmcn08A9NLXfJrpCKCUIKf58Cq08jL78SQYz_EjkYN9j_xMIK5qBY-THwFsCoMYzmiwqwbvVA4pVnK8EsRFpyLQc1ywIwhoUvGazsf9hjJJQCEDOqwr3JgLDEeKqrN7Mgwwb3JLQUQhiwigU1EGdSHSbt1Y4ySSo8nu1_1WVWWz9wReiy49vNaxXMuDV0gMNDh81n3Ilbce2BUUXEGGip0-x03kbz-kVtzgwJoCSSW7KaYwg0KTgukbsIHHfQP_Xbxu3e6aqPzSkmzJgmyn0IjiW-LzMoWSzWDkPb_AyByVJcULLc32GBvXvQypMr2PRbL2KKhYUJdOTiWvbl2clu7ketGN8zqocz6puN-kDCAfFDNqVPirhTUS5Zcy5IikWZVGzjIEb-ypxkLCdMv3auWUbq-3mQZEsdACun-qklIhA75udsPgl0uWQUmALAsmCl13xXozEPpuzGfIsX5Da5U6npDv7qNeRv6wXNmHW6k2ifjZqAojmHcow8tJbKRlNNgejeB8ZE1IRGYoIGwRi98Fhdrwo6_6kRTYDW8HFoW3bvPadWsjtQDgIwzPfFk4i_k56_KEPwmV25L__YRUDdEkR8Kp-PcUcccSrD0dHMSCccQn2cvfmyXRCkjzXHN4CjSR41V23CW38t8SIf6adfI9Miqftm8QgwN6n4vyC0_QAYeycIvYla4qWsuH8uw2ftqnJ2QM7IWgKqCTDbanLEZ3aqdpNkQfdEw7ePZKi1VDQK9pvRSmMw6RNrhuHJ5-mU53zkc3HuiruyHLW2qdQjiSkrZbw5Xrgkr-7RCf8giGr_S3erjhPmBhLAwmcWFxHbTIskdjAXabsxTx6fGhcEfBxjWS0f9jvognyqj2-YpvfqF2TtmRQPOce-UHpZjbsYOpTxKXO77HxZKl3hjpl7iJl5ETfZbCQvIULWez3oSnwWi1tgsLK0_YsqDLwqPep9FVx4AkYZT67LhOEVGS5uGSIpLDMod58SJ9Ba1ObxZC2LopMTS_rvmvol6-UUFWXpdLng5uYGxilruJsrr4v53YZvSGfJrBNkPPeZfGdu_2-FfBW6vjAbfnbreJZaDnopOR7dbGGoZ1AZVDZEopAG4o3EItQoQVlwPAh_Fv1UpDRYyzwWbPSuXMMTnZ7wLw-SQLsPweGDp1UeFAqe9ZQ7gwaGUply1]--></g></svg>