<svg xmlns="http://www.w3.org/2000/svg" xmlns:xlink="http://www.w3.org/1999/xlink" contentStyleType="text/css" data-diagram-type="CLASS" height="1368px" preserveAspectRatio="none" style="width:1152px;height:1368px;background:#FFFFFF;" version="1.1" viewBox="0 0 1152 1368" width="1152px" zoomAndPan="magnify"><?plantuml 1.2026.3beta6?><defs/><g><!--cluster genMatrix--><g class="cluster" data-qualified-name="genMatrix" data-source-line="3" id="ent0003"><path d="M8.5,6 L89.7881,6 A3.75,3.75 0 0 1 92.2881,8.5 L99.2881,28.2969 L986.5,28.2969 A2.5,2.5 0 0 1 989,30.7969 L989,1351.28 A2.5,2.5 0 0 1 986.5,1353.78 L8.5,1353.78 A2.5,2.5 0 0 1 6,1351.28 L6,8.5 A2.5,2.5 0 0 1 8.5,6" fill="none" style="stroke:#000000;stroke-width:1.5;"/><line style="stroke:#000000;stroke-width:1.5;" x1="6" x2="99.2881" y1="28.2969" y2="28.2969"/><text fill="#000000" font-family="sans-serif" font-size="14" font-weight="700" lengthAdjust="spacing" textLength="80.2881" x="10" y="20.9951">genMatrix</text></g><!--class Matrix<T>--><g class="entity" data-qualified-name="genMatrix.Matrix.T." data-source-line="5" id="ent0004"><rect fill="#F1F1F1" height="781.3594" rx="2.5" ry="2.5" style="stroke:#181818;stroke-width:0.5;" width="421.9375" x="22.03" y="41"/><ellipse cx="190.7033" cy="57" fill="#ADD1B2" rx="11" ry="11" style="stroke:#181818;stroke-width:1;"/><path d="M193.6721,62.6406 Q193.094,62.9375 192.4533,63.0781 Q191.8127,63.2344 191.1096,63.2344 Q188.6096,63.2344 187.2815,61.5938 Q185.969,59.9375 185.969,56.8125 Q185.969,53.6875 187.2815,52.0313 Q188.6096,50.375 191.1096,50.375 Q191.8127,50.375 192.4533,50.5313 Q193.1096,50.6875 193.6721,50.9844 L193.6721,53.7031 Q193.0471,53.125 192.4533,52.8594 Q191.8596,52.5781 191.2346,52.5781 Q189.8908,52.5781 189.2033,53.6563 Q188.5158,54.7188 188.5158,56.8125 Q188.5158,58.9063 189.2033,59.9844 Q189.8908,61.0469 191.2346,61.0469 Q191.8596,61.0469 192.4533,60.7813 Q193.0471,60.5 193.6721,59.9219 L193.6721,62.6406 Z " fill="#000000"/><text fill="#000000" font-family="sans-serif" font-size="14" lengthAdjust="spacing" textLength="76.0908" x="211.2033" y="61.8467">Matrix&lt;T&gt;</text><line style="stroke:#181818;stroke-width:0.5;" x1="23.03" x2="442.9675" y1="73" y2="73"/><g data-visibility-modifier="PRIVATE_FIELD"><rect fill="none" height="6" style="stroke:#C82930;stroke-width:1;" width="6" x="30.03" y="83.6484"/></g><text fill="#000000" font-family="sans-serif" font-size="14" lengthAdjust="spacing" textLength="51.5361" x="42.03" y="89.9951">T* data</text><g data-visibility-modifier="PRIVATE_FIELD"><rect fill="none" height="6" style="stroke:#C82930;stroke-width:1;" width="6" x="30.03" y="99.9453"/></g><text fill="#000000" font-family="sans-serif" font-size="14" lengthAdjust="spacing" textLength="52.958" x="42.03" y="106.292">size_t n</text><g data-visibility-modifier="PRIVATE_FIELD"><rect fill="none" height="6" style="stroke:#C82930;stroke-width:1;" width="6" x="30.03" y="116.2422"/></g><text fill="#000000" font-family="sans-serif" font-size="14" lengthAdjust="spacing" textLength="57.7227" x="42.03" y="122.5889">size_t m</text><g data-visibility-modifier="PRIVATE_FIELD"><rect fill="none" height="6" style="stroke:#C82930;stroke-width:1;" width="6" x="30.03" y="132.5391"/></g><text fill="#000000" font-family="sans-serif" font-size="14" lengthAdjust="spacing" textLength="107.2832" x="42.03" y="138.8857">bool isDynamic</text><line style="stroke:#181818;stroke-width:0.5;" x1="23.03" x2="442.9675" y1="146.1875" y2="146.1875"/><g data-visibility-modifier="PUBLIC_METHOD"><ellipse cx="33.03" cy="159.8359" fill="#84BE84" rx="3" ry="3" style="stroke:#038048;stroke-width:1;"/></g><text fill="#000000" font-family="sans-serif" font-size="14" lengthAdjust="spacing" textLength="233.6592" x="42.03" y="163.1826">Matrix(size_t n = 0, size_t m = 0)</text><g data-visibility-modifier="PUBLIC_METHOD"><ellipse cx="33.03" cy="176.1328" fill="#84BE84" rx="3" ry="3" style="stroke:#038048;stroke-width:1;"/></g><text fill="#000000" font-family="sans-serif" font-size="14" lengthAdjust="spacing" textLength="226.126" x="42.03" y="179.4795">Matrix(const Matrix&lt;T&gt;&amp; other)</text><g data-visibility-modifier="PUBLIC_METHOD"><ellipse cx="33.03" cy="192.4297" fill="#84BE84" rx="3" ry="3" style="stroke:#038048;stroke-width:1;"/></g><text fill="#000000" font-family="sans-serif" font-size="14" lengthAdjust="spacing" textLength="345.4473" x="42.03" y="195.7764">Matrix&lt;T&gt;&amp; operator=(const Matrix&lt;T&gt;&amp; other)</text><text fill="#000000" font-family="sans-serif" font-size="14" lengthAdjust="spacing" textLength="4.4502" x="42.03" y="212.0732">&#160;</text><g data-visibility-modifier="PUBLIC_METHOD"><ellipse cx="33.03" cy="225.0234" fill="#84BE84" rx="3" ry="3" style="stroke:#038048;stroke-width:1;"/></g><text fill="#000000" font-family="sans-serif" font-size="14" lengthAdjust="spacing" textLength="262.6641" x="42.03" y="228.3701">CommaInit operator&lt;&lt;(const T&amp; val)</text><text fill="#000000" font-family="sans-serif" font-size="14" lengthAdjust="spacing" textLength="4.4502" x="42.03" y="244.667">&#160;</text><g data-visibility-modifier="PUBLIC_METHOD"><ellipse cx="33.03" cy="257.6172" fill="#84BE84" rx="3" ry="3" style="stroke:#038048;stroke-width:1;"/></g><text fill="#000000" font-family="sans-serif" font-size="14" lengthAdjust="spacing" textLength="157.4043" x="42.03" y="260.9639">size_t getRows() const</text><g data-visibility-modifier="PUBLIC_METHOD"><ellipse cx="33.03" cy="273.9141" fill="#84BE84" rx="3" ry="3" style="stroke:#038048;stroke-width:1;"/></g><text fill="#000000" font-family="sans-serif" font-size="14" lengthAdjust="spacing" textLength="149.8916" x="42.03" y="277.2607">size_t getCols() const</text><g data-visibility-modifier="PUBLIC_METHOD"><ellipse cx="33.03" cy="290.2109" fill="#84BE84" rx="3" ry="3" style="stroke:#038048;stroke-width:1;"/></g><text fill="#000000" font-family="sans-serif" font-size="14" lengthAdjust="spacing" textLength="124.5234" x="42.03" y="293.5576">size_t size() const</text><text fill="#000000" font-family="sans-serif" font-size="14" lengthAdjust="spacing" textLength="4.4502" x="42.03" y="309.8545">&#160;</text><g data-visibility-modifier="PUBLIC_METHOD"><ellipse cx="33.03" cy="322.8047" fill="#84BE84" rx="3" ry="3" style="stroke:#038048;stroke-width:1;"/></g><text fill="#000000" font-family="sans-serif" font-size="14" lengthAdjust="spacing" textLength="333.71" x="42.03" y="326.1514">const T&amp; operator()(size_t row, size_t col) const</text><g data-visibility-modifier="PUBLIC_METHOD"><ellipse cx="33.03" cy="339.1016" fill="#84BE84" rx="3" ry="3" style="stroke:#038048;stroke-width:1;"/></g><text fill="#000000" font-family="sans-serif" font-size="14" lengthAdjust="spacing" textLength="248.9717" x="42.03" y="342.4482">T&amp; operator()(size_t row, size_t col)</text><text fill="#000000" font-family="sans-serif" font-size="14" lengthAdjust="spacing" textLength="4.4502" x="42.03" y="358.7451">&#160;</text><g data-visibility-modifier="PUBLIC_METHOD"><ellipse cx="33.03" cy="371.6953" fill="#84BE84" rx="3" ry="3" style="stroke:#038048;stroke-width:1;"/></g><text fill="#000000" font-family="sans-serif" font-size="14" lengthAdjust="spacing" textLength="300.0771" x="42.03" y="375.042">bool operator==(const Matrix&lt;T&gt;&amp; other)</text><text fill="#000000" font-family="sans-serif" font-size="14" lengthAdjust="spacing" textLength="4.4502" x="42.03" y="391.3389">&#160;</text><g data-visibility-modifier="PUBLIC_METHOD"><ellipse cx="33.03" cy="404.2891" fill="#84BE84" rx="3" ry="3" style="stroke:#038048;stroke-width:1;"/></g><text fill="#000000" font-family="sans-serif" font-size="14" lengthAdjust="spacing" textLength="157.9785" x="42.03" y="407.6357">Matrix_Iterator begin()</text><g data-visibility-modifier="PUBLIC_METHOD"><ellipse cx="33.03" cy="420.5859" fill="#84BE84" rx="3" ry="3" style="stroke:#038048;stroke-width:1;"/></g><text fill="#000000" font-family="sans-serif" font-size="14" lengthAdjust="spacing" textLength="145.2021" x="42.03" y="423.9326">Matrix_Iterator end()</text><text fill="#000000" font-family="sans-serif" font-size="14" lengthAdjust="spacing" textLength="4.4502" x="42.03" y="440.2295">&#160;</text><g data-visibility-modifier="PUBLIC_METHOD"><ellipse cx="33.03" cy="453.1797" fill="#84BE84" rx="3" ry="3" style="stroke:#038048;stroke-width:1;"/></g><text fill="#000000" font-family="sans-serif" font-size="14" lengthAdjust="spacing" textLength="300.9658" x="42.03" y="456.5264">Matrix&lt;T&gt;&amp; swapRow(size_t n1, size_t n2)</text><g data-visibility-modifier="PUBLIC_METHOD"><ellipse cx="33.03" cy="469.4766" fill="#84BE84" rx="3" ry="3" style="stroke:#038048;stroke-width:1;"/></g><text fill="#000000" font-family="sans-serif" font-size="14" lengthAdjust="spacing" textLength="302.9824" x="42.03" y="472.8232">Matrix&lt;T&gt;&amp; swapCol(size_t m1, size_t m2)</text><text fill="#000000" font-family="sans-serif" font-size="14" lengthAdjust="spacing" textLength="4.4502" x="42.03" y="489.1201">&#160;</text><g data-visibility-modifier="PUBLIC_METHOD"><ellipse cx="33.03" cy="502.0703" fill="#84BE84" rx="3" ry="3" style="stroke:#038048;stroke-width:1;"/></g><text fill="#000000" font-family="sans-serif" font-size="14" lengthAdjust="spacing" textLength="395.9375" x="42.03" y="505.417">Matrix&lt;T&gt; operator+(const Matrix&lt;T&gt;&amp; rhs_mtx) const</text><g data-visibility-modifier="PUBLIC_METHOD"><ellipse cx="33.03" cy="518.3672" fill="#84BE84" rx="3" ry="3" style="stroke:#038048;stroke-width:1;"/></g><text fill="#000000" font-family="sans-serif" font-size="14" lengthAdjust="spacing" textLength="289.8916" x="42.03" y="521.7139">Matrix&lt;T&gt; operator+(const T&amp; rhs_type)</text><g data-visibility-modifier="PUBLIC_METHOD"><ellipse cx="33.03" cy="534.6641" fill="#84BE84" rx="3" ry="3" style="stroke:#038048;stroke-width:1;"/></g><text fill="#000000" font-family="sans-serif" font-size="14" lengthAdjust="spacing" textLength="376.2158" x="42.03" y="538.0107">Matrix&lt;T&gt;&amp; operator+=(const Matrix&lt;T&gt;&amp; rhs_mtx)</text><g data-visibility-modifier="PUBLIC_METHOD"><ellipse cx="33.03" cy="550.9609" fill="#84BE84" rx="3" ry="3" style="stroke:#038048;stroke-width:1;"/></g><text fill="#000000" font-family="sans-serif" font-size="14" lengthAdjust="spacing" textLength="312.5391" x="42.03" y="554.3076">Matrix&lt;T&gt;&amp; operator+=(const T&amp; rhs_type)</text><text fill="#000000" font-family="sans-serif" font-size="14" lengthAdjust="spacing" textLength="4.4502" x="42.03" y="570.6045">&#160;</text><g data-visibility-modifier="PUBLIC_METHOD"><ellipse cx="33.03" cy="583.5547" fill="#84BE84" rx="3" ry="3" style="stroke:#038048;stroke-width:1;"/></g><text fill="#000000" font-family="sans-serif" font-size="14" lengthAdjust="spacing" textLength="389.2588" x="42.03" y="586.9014">Matrix&lt;T&gt; operator-(const Matrix&lt;T&gt;&amp; rhs_mtx) const</text><g data-visibility-modifier="PUBLIC_METHOD"><ellipse cx="33.03" cy="599.8516" fill="#84BE84" rx="3" ry="3" style="stroke:#038048;stroke-width:1;"/></g><text fill="#000000" font-family="sans-serif" font-size="14" lengthAdjust="spacing" textLength="294.1299" x="42.03" y="603.1982">Matrix&lt;T&gt;&amp; operator-(const T&amp; rhs_type)</text><g data-visibility-modifier="PUBLIC_METHOD"><ellipse cx="33.03" cy="616.1484" fill="#84BE84" rx="3" ry="3" style="stroke:#038048;stroke-width:1;"/></g><text fill="#000000" font-family="sans-serif" font-size="14" lengthAdjust="spacing" textLength="369.5371" x="42.03" y="619.4951">Matrix&lt;T&gt;&amp; operator-=(const Matrix&lt;T&gt;&amp; rhs_mtx)</text><g data-visibility-modifier="PUBLIC_METHOD"><ellipse cx="33.03" cy="632.4453" fill="#84BE84" rx="3" ry="3" style="stroke:#038048;stroke-width:1;"/></g><text fill="#000000" font-family="sans-serif" font-size="14" lengthAdjust="spacing" textLength="305.8604" x="42.03" y="635.792">Matrix&lt;T&gt;&amp; operator-=(const T&amp; rhs_type)</text><text fill="#000000" font-family="sans-serif" font-size="14" lengthAdjust="spacing" textLength="4.4502" x="42.03" y="652.0889">&#160;</text><g data-visibility-modifier="PUBLIC_METHOD"><ellipse cx="33.03" cy="665.0391" fill="#84BE84" rx="3" ry="3" style="stroke:#038048;stroke-width:1;"/></g><text fill="#000000" font-family="sans-serif" font-size="14" lengthAdjust="spacing" textLength="391.207" x="42.03" y="668.3857">Matrix&lt;T&gt; operator*(const Matrix&lt;T&gt;&amp; rhs_mtx) const</text><g data-visibility-modifier="PUBLIC_METHOD"><ellipse cx="33.03" cy="681.3359" fill="#84BE84" rx="3" ry="3" style="stroke:#038048;stroke-width:1;"/></g><text fill="#000000" font-family="sans-serif" font-size="14" lengthAdjust="spacing" textLength="327.5303" x="42.03" y="684.6826">Matrix&lt;T&gt; operator*(const T&amp; rhs_type) const</text><g data-visibility-modifier="PUBLIC_METHOD"><ellipse cx="33.03" cy="697.6328" fill="#84BE84" rx="3" ry="3" style="stroke:#038048;stroke-width:1;"/></g><text fill="#000000" font-family="sans-serif" font-size="14" lengthAdjust="spacing" textLength="371.4854" x="42.03" y="700.9795">Matrix&lt;T&gt;&amp; operator*=(const Matrix&lt;T&gt;&amp; rhs_mtx)</text><g data-visibility-modifier="PUBLIC_METHOD"><ellipse cx="33.03" cy="713.9297" fill="#84BE84" rx="3" ry="3" style="stroke:#038048;stroke-width:1;"/></g><text fill="#000000" font-family="sans-serif" font-size="14" lengthAdjust="spacing" textLength="339.2607" x="42.03" y="717.2764">Matrix&lt;T&gt; operator*=(const T&amp; rhs_type) const</text><text fill="#000000" font-family="sans-serif" font-size="14" lengthAdjust="spacing" textLength="4.4502" x="42.03" y="733.5732">&#160;</text><g data-visibility-modifier="PUBLIC_METHOD"><ellipse cx="33.03" cy="746.5234" fill="#84BE84" rx="3" ry="3" style="stroke:#038048;stroke-width:1;"/></g><text fill="#000000" font-family="sans-serif" font-size="14" lengthAdjust="spacing" textLength="114.3516" x="42.03" y="749.8701">void transpose()</text><g data-visibility-modifier="PUBLIC_METHOD"><ellipse cx="33.03" cy="762.8203" fill="#84BE84" rx="3" ry="3" style="stroke:#038048;stroke-width:1;"/></g><text fill="#000000" font-family="sans-serif" font-size="14" lengthAdjust="spacing" textLength="142.7891" x="42.03" y="766.167">Matrix&lt;T&gt; inverse()</text><g data-visibility-modifier="PUBLIC_METHOD"><ellipse cx="33.03" cy="779.1172" fill="#84BE84" rx="3" ry="3" style="stroke:#038048;stroke-width:1;"/></g><text fill="#000000" font-family="sans-serif" font-size="14" lengthAdjust="spacing" textLength="110.626" x="42.03" y="782.4639">T determinant()</text><text fill="#000000" font-family="sans-serif" font-size="14" lengthAdjust="spacing" textLength="4.4502" x="42.03" y="798.7607">&#160;</text><g data-visibility-modifier="PUBLIC_METHOD"><ellipse cx="33.03" cy="811.7109" fill="#84BE84" rx="3" ry="3" style="stroke:#038048;stroke-width:1;"/></g><text fill="#000000" font-family="sans-serif" font-size="14" lengthAdjust="spacing" textLength="66.7324" x="42.03" y="815.0576">~Matrix()</text></g><!--class Matrix<T>::CommaInit--><g class="entity" data-qualified-name="genMatrix.Matrix.T...CommaInit" data-source-line="54" id="ent0005"><rect fill="#F1F1F1" height="129.4844" rx="2.5" ry="2.5" style="stroke:#181818;stroke-width:0.5;" width="336.7002" x="42.65" y="1045.33"/><ellipse cx="125.6998" cy="1061.33" fill="#ADD1B2" rx="11" ry="11" style="stroke:#181818;stroke-width:1;"/><path d="M128.6686,1066.9706 Q128.0904,1067.2675 127.4498,1067.4081 Q126.8092,1067.5644 126.1061,1067.5644 Q123.6061,1067.5644 122.2779,1065.9238 Q120.9654,1064.2675 120.9654,1061.1425 Q120.9654,1058.0175 122.2779,1056.3613 Q123.6061,1054.705 126.1061,1054.705 Q126.8092,1054.705 127.4498,1054.8613 Q128.1061,1055.0175 128.6686,1055.3144 L128.6686,1058.0331 Q128.0436,1057.455 127.4498,1057.1894 Q126.8561,1056.9081 126.2311,1056.9081 Q124.8873,1056.9081 124.1998,1057.9863 Q123.5123,1059.0488 123.5123,1061.1425 Q123.5123,1063.2363 124.1998,1064.3144 Q124.8873,1065.3769 126.2311,1065.3769 Q126.8561,1065.3769 127.4498,1065.1113 Q128.0436,1064.83 128.6686,1064.2519 L128.6686,1066.9706 Z " fill="#000000"/><text fill="#000000" font-family="sans-serif" font-size="14" lengthAdjust="spacing" textLength="162.1006" x="146.1998" y="1066.1767">Matrix&lt;T&gt;::CommaInit</text><line style="stroke:#181818;stroke-width:0.5;" x1="43.65" x2="378.3502" y1="1077.33" y2="1077.33"/><g data-visibility-modifier="PUBLIC_FIELD"><ellipse cx="53.65" cy="1090.9784" fill="none" rx="3" ry="3" style="stroke:#038048;stroke-width:1;"/></g><text fill="#000000" font-family="sans-serif" font-size="14" lengthAdjust="spacing" textLength="118.8701" x="62.65" y="1094.3251">Matrix&lt;T&gt;&amp; mtx</text><g data-visibility-modifier="PUBLIC_FIELD"><ellipse cx="53.65" cy="1107.2753" fill="none" rx="3" ry="3" style="stroke:#038048;stroke-width:1;"/></g><text fill="#000000" font-family="sans-serif" font-size="14" lengthAdjust="spacing" textLength="96.4072" x="62.65" y="1110.622">size_t nextidx</text><line style="stroke:#181818;stroke-width:0.5;" x1="43.65" x2="378.3502" y1="1117.9238" y2="1117.9238"/><g data-visibility-modifier="PUBLIC_METHOD"><ellipse cx="53.65" cy="1131.5722" fill="#84BE84" rx="3" ry="3" style="stroke:#038048;stroke-width:1;"/></g><text fill="#000000" font-family="sans-serif" font-size="14" lengthAdjust="spacing" textLength="310.7002" x="62.65" y="1134.9189">CommaInit(Matrix&lt;T&gt;&amp; _mtx, const T&amp; init)</text><g data-visibility-modifier="PUBLIC_METHOD"><ellipse cx="53.65" cy="1147.8691" fill="#84BE84" rx="3" ry="3" style="stroke:#038048;stroke-width:1;"/></g><text fill="#000000" font-family="sans-serif" font-size="14" lengthAdjust="spacing" textLength="283.4932" x="62.65" y="1151.2157">CommaInit&amp; operator,(const T&amp; rhs_val)</text><g data-visibility-modifier="PUBLIC_METHOD"><ellipse cx="53.65" cy="1164.1659" fill="#84BE84" rx="3" ry="3" style="stroke:#038048;stroke-width:1;"/></g><text fill="#000000" font-family="sans-serif" font-size="14" lengthAdjust="spacing" textLength="99.2305" x="62.65" y="1167.5126">~CommaInit()</text></g><!--class Matrix<T>::Matrix_Iterator--><g class="entity" data-qualified-name="genMatrix.Matrix.T...Matrix_Iterator" data-source-line="63" id="ent0006"><rect fill="#F1F1F1" height="455.4219" rx="2.5" ry="2.5" style="stroke:#181818;stroke-width:0.5;" width="471.9424" x="414.03" y="882.36"/><ellipse cx="551.2614" cy="898.36" fill="#ADD1B2" rx="11" ry="11" style="stroke:#181818;stroke-width:1;"/><path d="M554.2302,904.0006 Q553.6521,904.2975 553.0114,904.4381 Q552.3708,904.5944 551.6677,904.5944 Q549.1677,904.5944 547.8396,902.9537 Q546.5271,901.2975 546.5271,898.1725 Q546.5271,895.0475 547.8396,893.3912 Q549.1677,891.735 551.6677,891.735 Q552.3708,891.735 553.0114,891.8912 Q553.6677,892.0475 554.2302,892.3444 L554.2302,895.0631 Q553.6052,894.485 553.0114,894.2194 Q552.4177,893.9381 551.7927,893.9381 Q550.4489,893.9381 549.7614,895.0162 Q549.0739,896.0787 549.0739,898.1725 Q549.0739,900.2662 549.7614,901.3444 Q550.4489,902.4069 551.7927,902.4069 Q552.4177,902.4069 553.0114,902.1412 Q553.6052,901.86 554.2302,901.2819 L554.2302,904.0006 Z " fill="#000000"/><text fill="#000000" font-family="sans-serif" font-size="14" lengthAdjust="spacing" textLength="188.9795" x="571.7614" y="903.2067">Matrix&lt;T&gt;::Matrix_Iterator</text><line style="stroke:#181818;stroke-width:0.5;" x1="415.03" x2="884.9724" y1="914.36" y2="914.36"/><g data-visibility-modifier="PRIVATE_FIELD"><rect fill="none" height="6" style="stroke:#C82930;stroke-width:1;" width="6" x="422.03" y="925.0084"/></g><text fill="#000000" font-family="sans-serif" font-size="14" lengthAdjust="spacing" textLength="40.1338" x="434.03" y="931.3551">T* ptr</text><line style="stroke:#181818;stroke-width:0.5;" x1="415.03" x2="884.9724" y1="938.6569" y2="938.6569"/><g data-visibility-modifier="PUBLIC_METHOD"><ellipse cx="425.03" cy="952.3053" fill="#84BE84" rx="3" ry="3" style="stroke:#038048;stroke-width:1;"/></g><text fill="#000000" font-family="sans-serif" font-size="14" lengthAdjust="spacing" textLength="227.8008" x="434.03" y="955.652">Matrix_Iterator(T* _ptr = nullptr)</text><text fill="#000000" font-family="sans-serif" font-size="14" lengthAdjust="spacing" textLength="4.4502" x="434.03" y="971.9489">&#160;</text><g data-visibility-modifier="PUBLIC_METHOD"><ellipse cx="425.03" cy="984.8991" fill="#84BE84" rx="3" ry="3" style="stroke:#038048;stroke-width:1;"/></g><text fill="#000000" font-family="sans-serif" font-size="14" lengthAdjust="spacing" textLength="144.4229" x="434.03" y="988.2457">T&amp; operator*() const</text><g data-visibility-modifier="PUBLIC_METHOD"><ellipse cx="425.03" cy="1001.1959" fill="#84BE84" rx="3" ry="3" style="stroke:#038048;stroke-width:1;"/></g><text fill="#000000" font-family="sans-serif" font-size="14" lengthAdjust="spacing" textLength="150.2881" x="434.03" y="1004.5426">T* operator-&gt;() const</text><g data-visibility-modifier="PUBLIC_METHOD"><ellipse cx="425.03" cy="1017.4928" fill="#84BE84" rx="3" ry="3" style="stroke:#038048;stroke-width:1;"/></g><text fill="#000000" font-family="sans-serif" font-size="14" lengthAdjust="spacing" textLength="313.4277" x="434.03" y="1020.8395">T&amp; operator[](difference_type rhs_diff) const</text><text fill="#000000" font-family="sans-serif" font-size="14" lengthAdjust="spacing" textLength="4.4502" x="434.03" y="1037.1364">&#160;</text><g data-visibility-modifier="PUBLIC_METHOD"><ellipse cx="425.03" cy="1050.0866" fill="#84BE84" rx="3" ry="3" style="stroke:#038048;stroke-width:1;"/></g><text fill="#000000" font-family="sans-serif" font-size="14" lengthAdjust="spacing" textLength="213.418" x="434.03" y="1053.4332">Matrix_Iterator&amp; operator++()</text><g data-visibility-modifier="PUBLIC_METHOD"><ellipse cx="425.03" cy="1066.3834" fill="#84BE84" rx="3" ry="3" style="stroke:#038048;stroke-width:1;"/></g><text fill="#000000" font-family="sans-serif" font-size="14" lengthAdjust="spacing" textLength="220.7529" x="434.03" y="1069.7301">Matrix_Iterator operator++(int)</text><g data-visibility-modifier="PUBLIC_METHOD"><ellipse cx="425.03" cy="1082.6803" fill="#84BE84" rx="3" ry="3" style="stroke:#038048;stroke-width:1;"/></g><text fill="#000000" font-family="sans-serif" font-size="14" lengthAdjust="spacing" textLength="200.0605" x="434.03" y="1086.027">Matrix_Iterator&amp; operator--()</text><g data-visibility-modifier="PUBLIC_METHOD"><ellipse cx="425.03" cy="1098.9772" fill="#84BE84" rx="3" ry="3" style="stroke:#038048;stroke-width:1;"/></g><text fill="#000000" font-family="sans-serif" font-size="14" lengthAdjust="spacing" textLength="207.3955" x="434.03" y="1102.3239">Matrix_Iterator operator--(int)</text><text fill="#000000" font-family="sans-serif" font-size="14" lengthAdjust="spacing" textLength="4.4502" x="434.03" y="1118.6207">&#160;</text><g data-visibility-modifier="PUBLIC_METHOD"><ellipse cx="425.03" cy="1131.5709" fill="#84BE84" rx="3" ry="3" style="stroke:#038048;stroke-width:1;"/></g><text fill="#000000" font-family="sans-serif" font-size="14" lengthAdjust="spacing" textLength="398.2207" x="434.03" y="1134.9176">Matrix_Iterator operator+(difference_type rhs_diff) const</text><g data-visibility-modifier="PUBLIC_METHOD"><ellipse cx="425.03" cy="1147.8678" fill="#84BE84" rx="3" ry="3" style="stroke:#038048;stroke-width:1;"/></g><text fill="#000000" font-family="sans-serif" font-size="14" lengthAdjust="spacing" textLength="391.542" x="434.03" y="1151.2145">Matrix_Iterator operator-(difference_type rhs_diff) const</text><g data-visibility-modifier="PUBLIC_METHOD"><ellipse cx="425.03" cy="1164.1647" fill="#84BE84" rx="3" ry="3" style="stroke:#038048;stroke-width:1;"/></g><text fill="#000000" font-family="sans-serif" font-size="14" lengthAdjust="spacing" textLength="378.499" x="434.03" y="1167.5114">Matrix_Iterator&amp; operator+=(difference_type rhs_diff)</text><g data-visibility-modifier="PUBLIC_METHOD"><ellipse cx="425.03" cy="1180.4616" fill="#84BE84" rx="3" ry="3" style="stroke:#038048;stroke-width:1;"/></g><text fill="#000000" font-family="sans-serif" font-size="14" lengthAdjust="spacing" textLength="371.8203" x="434.03" y="1183.8082">Matrix_Iterator&amp; operator-=(difference_type rhs_diff)</text><text fill="#000000" font-family="sans-serif" font-size="14" lengthAdjust="spacing" textLength="4.4502" x="434.03" y="1200.1051">&#160;</text><g data-visibility-modifier="PUBLIC_METHOD"><ellipse cx="425.03" cy="1213.0553" fill="#84BE84" rx="3" ry="3" style="stroke:#038048;stroke-width:1;"/></g><text fill="#000000" font-family="sans-serif" font-size="14" lengthAdjust="spacing" textLength="445.9424" x="434.03" y="1216.402">difference_type operator-(const Matrix_Iterator&amp; rhs_iter) const</text><text fill="#000000" font-family="sans-serif" font-size="14" lengthAdjust="spacing" textLength="4.4502" x="434.03" y="1232.6989">&#160;</text><g data-visibility-modifier="PUBLIC_METHOD"><ellipse cx="425.03" cy="1245.6491" fill="#84BE84" rx="3" ry="3" style="stroke:#038048;stroke-width:1;"/></g><text fill="#000000" font-family="sans-serif" font-size="14" lengthAdjust="spacing" textLength="385.1846" x="434.03" y="1248.9957">bool operator==(const Matrix_Iterator&amp; rhs_iter) const</text><g data-visibility-modifier="PUBLIC_METHOD"><ellipse cx="425.03" cy="1261.9459" fill="#84BE84" rx="3" ry="3" style="stroke:#038048;stroke-width:1;"/></g><text fill="#000000" font-family="sans-serif" font-size="14" lengthAdjust="spacing" textLength="379.0664" x="434.03" y="1265.2926">bool operator!=(const Matrix_Iterator&amp; rhs_iter) const</text><g data-visibility-modifier="PUBLIC_METHOD"><ellipse cx="425.03" cy="1278.2428" fill="#84BE84" rx="3" ry="3" style="stroke:#038048;stroke-width:1;"/></g><text fill="#000000" font-family="sans-serif" font-size="14" lengthAdjust="spacing" textLength="385.1846" x="434.03" y="1281.5895">bool operator&lt;=(const Matrix_Iterator&amp; rhs_iter) const</text><g data-visibility-modifier="PUBLIC_METHOD"><ellipse cx="425.03" cy="1294.5397" fill="#84BE84" rx="3" ry="3" style="stroke:#038048;stroke-width:1;"/></g><text fill="#000000" font-family="sans-serif" font-size="14" lengthAdjust="spacing" textLength="385.1846" x="434.03" y="1297.8864">bool operator&gt;=(const Matrix_Iterator&amp; rhs_iter) const</text><g data-visibility-modifier="PUBLIC_METHOD"><ellipse cx="425.03" cy="1310.8366" fill="#84BE84" rx="3" ry="3" style="stroke:#038048;stroke-width:1;"/></g><text fill="#000000" font-family="sans-serif" font-size="14" lengthAdjust="spacing" textLength="373.4541" x="434.03" y="1314.1832">bool operator&gt;(const Matrix_Iterator&amp; rhs_iter) const</text><g data-visibility-modifier="PUBLIC_METHOD"><ellipse cx="425.03" cy="1327.1334" fill="#84BE84" rx="3" ry="3" style="stroke:#038048;stroke-width:1;"/></g><text fill="#000000" font-family="sans-serif" font-size="14" lengthAdjust="spacing" textLength="373.4541" x="434.03" y="1330.4801">bool operator&lt;(const Matrix_Iterator&amp; rhs_iter) const</text></g><!--class Matrix_Error--><g class="entity" data-qualified-name="genMatrix.Matrix_Error" data-source-line="92" id="ent0007"><rect fill="#F1F1F1" height="210.9688" rx="2.5" ry="2.5" style="stroke:#181818;stroke-width:0.5;" width="494.2549" x="478.87" y="326.19"/><ellipse cx="678.869" cy="342.19" fill="#ADD1B2" rx="11" ry="11" style="stroke:#181818;stroke-width:1;"/><path d="M681.8378,347.8306 Q681.2596,348.1275 680.619,348.2681 Q679.9784,348.4244 679.2753,348.4244 Q676.7753,348.4244 675.4471,346.7838 Q674.1346,345.1275 674.1346,342.0025 Q674.1346,338.8775 675.4471,337.2213 Q676.7753,335.565 679.2753,335.565 Q679.9784,335.565 680.619,335.7213 Q681.2753,335.8775 681.8378,336.1744 L681.8378,338.8931 Q681.2128,338.315 680.619,338.0494 Q680.0253,337.7681 679.4003,337.7681 Q678.0565,337.7681 677.369,338.8463 Q676.6815,339.9088 676.6815,342.0025 Q676.6815,344.0963 677.369,345.1744 Q678.0565,346.2369 679.4003,346.2369 Q680.0253,346.2369 680.619,345.9713 Q681.2128,345.69 681.8378,345.1119 L681.8378,347.8306 Z " fill="#000000"/><text fill="#000000" font-family="sans-serif" font-size="14" lengthAdjust="spacing" textLength="85.7568" x="699.369" y="347.0367">Matrix_Error</text><line style="stroke:#181818;stroke-width:0.5;" x1="479.87" x2="972.1249" y1="358.19" y2="358.19"/><g data-visibility-modifier="PRIVATE_FIELD"><rect fill="none" height="6" style="stroke:#C82930;stroke-width:1;" width="6" x="486.87" y="368.8384"/></g><text fill="#000000" font-family="sans-serif" font-size="14" lengthAdjust="spacing" textLength="80.1309" x="498.87" y="375.1851">bool isFatal</text><g data-visibility-modifier="PRIVATE_FIELD"><rect fill="none" height="6" style="stroke:#C82930;stroke-width:1;" width="6" x="486.87" y="385.1353"/></g><text fill="#000000" font-family="sans-serif" font-size="14" lengthAdjust="spacing" textLength="100.4746" x="498.87" y="391.482">char* src_func</text><g data-visibility-modifier="PRIVATE_FIELD"><rect fill="none" height="6" style="stroke:#C82930;stroke-width:1;" width="6" x="486.87" y="401.4322"/></g><text fill="#000000" font-family="sans-serif" font-size="14" lengthAdjust="spacing" textLength="72.1738" x="498.87" y="407.7789">char* msg</text><line style="stroke:#181818;stroke-width:0.5;" x1="479.87" x2="972.1249" y1="415.0806" y2="415.0806"/><g data-visibility-modifier="PUBLIC_METHOD"><ellipse cx="489.87" cy="428.7291" fill="#84BE84" rx="3" ry="3" style="stroke:#038048;stroke-width:1;"/></g><text fill="#000000" font-family="sans-serif" font-size="14" lengthAdjust="spacing" textLength="468.2549" x="498.87" y="432.0757">Matrix_Error(const char* _src, const char* _msg, bool fatal = false)</text><g data-visibility-modifier="PUBLIC_METHOD"><ellipse cx="489.87" cy="445.0259" fill="#84BE84" rx="3" ry="3" style="stroke:#038048;stroke-width:1;"/></g><text fill="#000000" font-family="sans-serif" font-size="14" lengthAdjust="spacing" textLength="277.4707" x="498.87" y="448.3726">Matrix_Error(const Matrix_Error&amp; other)</text><text fill="#000000" font-family="sans-serif" font-size="14" lengthAdjust="spacing" textLength="4.4502" x="498.87" y="464.6695">&#160;</text><g data-visibility-modifier="PUBLIC_METHOD"><ellipse cx="489.87" cy="477.6197" fill="#84BE84" rx="3" ry="3" style="stroke:#038048;stroke-width:1;"/></g><text fill="#000000" font-family="sans-serif" font-size="14" lengthAdjust="spacing" textLength="158.7646" x="498.87" y="480.9664">const char* src() const</text><g data-visibility-modifier="PUBLIC_METHOD"><ellipse cx="489.87" cy="493.9166" fill="#84BE84" rx="3" ry="3" style="stroke:#038048;stroke-width:1;"/></g><text fill="#000000" font-family="sans-serif" font-size="14" lengthAdjust="spacing" textLength="172.4092" x="498.87" y="497.2632">const char* what() const</text><text fill="#000000" font-family="sans-serif" font-size="14" lengthAdjust="spacing" textLength="4.4502" x="498.87" y="513.5601">&#160;</text><g data-visibility-modifier="PUBLIC_METHOD"><ellipse cx="489.87" cy="526.5103" fill="#84BE84" rx="3" ry="3" style="stroke:#038048;stroke-width:1;"/></g><text fill="#000000" font-family="sans-serif" font-size="14" lengthAdjust="spacing" textLength="108.4111" x="498.87" y="529.857">~Matrix_Error()</text></g><!--class std::exception--><g class="entity" data-qualified-name="std..exception" data-source-line="1" id="ent0002"><rect fill="#F1F1F1" height="56.2656" rx="2.5" ry="2.5" style="stroke:#181818;stroke-width:0.5;" width="132.0166" x="1004.99" y="1081.94"/><ellipse cx="1019.99" cy="1102.0728" fill="#ADD1B2" rx="11" ry="11" style="stroke:#181818;stroke-width:1;"/><path d="M1022.9588,1107.7134 Q1022.3806,1108.0103 1021.74,1108.1509 Q1021.0994,1108.3072 1020.3963,1108.3072 Q1017.8963,1108.3072 1016.5681,1106.6666 Q1015.2556,1105.0103 1015.2556,1101.8853 Q1015.2556,1098.7603 1016.5681,1097.1041 Q1017.8963,1095.4478 1020.3963,1095.4478 Q1021.0994,1095.4478 1021.74,1095.6041 Q1022.3963,1095.7603 1022.9588,1096.0572 L1022.9588,1098.7759 Q1022.3338,1098.1978 1021.74,1097.9322 Q1021.1463,1097.6509 1020.5213,1097.6509 Q1019.1775,1097.6509 1018.49,1098.7291 Q1017.8025,1099.7916 1017.8025,1101.8853 Q1017.8025,1103.9791 1018.49,1105.0572 Q1019.1775,1106.1197 1020.5213,1106.1197 Q1021.1463,1106.1197 1021.74,1105.8541 Q1022.3338,1105.5728 1022.9588,1104.9947 L1022.9588,1107.7134 Z " fill="#000000"/><text fill="#000000" font-family="sans-serif" font-size="12" font-style="italic" lengthAdjust="spacing" textLength="64.4824" x="1051.7571" y="1098.0787">&#171;external&#187;</text><text fill="#000000" font-family="sans-serif" font-size="14" lengthAdjust="spacing" textLength="100.0166" x="1033.99" y="1113.9039">std::exception</text><line style="stroke:#181818;stroke-width:0.5;" x1="1005.99" x2="1136.0066" y1="1122.2056" y2="1122.2056"/><line style="stroke:#181818;stroke-width:0.5;" x1="1005.99" x2="1136.0066" y1="1130.2056" y2="1130.2056"/></g><!--reverse link Matrix<T> to Matrix<T>::CommaInit--><g class="link" data-entity-1="ent0004" data-entity-2="ent0005" data-link-type="composition" data-source-line="107" id="lnk8"><path codeLine="107" d="M219.9205,834.7037 C217.1105,921.2237 214.84,991.11 213.08,1044.98" fill="none" id="Matrix&lt;T&gt;-backto-Matrix&lt;T&gt;::CommaInit" style="stroke:#181818;stroke-width:1;"/><polygon fill="#181818" points="220.31,822.71,216.1173,828.577,219.9205,834.7037,224.1131,828.8367,220.31,822.71" style="stroke:#181818;stroke-width:1;"/></g><!--reverse link Matrix<T> to Matrix<T>::Matrix_Iterator--><g class="link" data-entity-1="ent0004" data-entity-2="ent0006" data-link-type="composition" data-source-line="108" id="lnk9"><path codeLine="108" d="M450.7134,805.7696 C456.2634,814.8196 455.52,813.54 461,822.36 C473.12,841.85 485.86,861.97 498.78,882.08" fill="none" id="Matrix&lt;T&gt;-backto-Matrix&lt;T&gt;::Matrix_Iterator" style="stroke:#181818;stroke-width:1;"/><polygon fill="#181818" points="444.44,795.54,444.1668,802.7459,450.7134,805.7696,450.9866,798.5637,444.44,795.54" style="stroke:#181818;stroke-width:1;"/></g><!--link Matrix_Error to std::exception--><g class="link" data-entity-1="ent0007" data-entity-2="ent0002" data-link-type="extension" data-source-line="110" id="lnk10"><path codeLine="110" d="M794.61,537.38 C851.31,626.68 931.54,759.71 989,882.36 C1021.58,951.91 1044.3252,1021.0172 1057.5752,1064.3372" fill="none" id="Matrix_Error-to-std::exception" style="stroke:#181818;stroke-width:1;"/><polygon fill="none" points="1062.84,1081.55,1063.3128,1062.5822,1051.8376,1066.0921,1062.84,1081.55" style="stroke:#181818;stroke-width:1;"/></g><?plantuml-src fLTDZzem4BtdLxXxe4aWKhj757BPRQKzzBBYLbN8cnYmbDYHxGMssztVNkS3OyTE2C05c9dtdcVYF2Tf3Za7N6JpEJgag1IO4X37w20G8p1F4iyZi42yX2a26qH-GS7m0Rnx7f2Vj4RVDS5ucTp916W_4LY688C2QX6E_wAL0CGE5LheXT8SOFxu9fLnwgdC53H2_f46BC2tcMAe_WLsSKe95q0jSGAes29c5pQv4Z4eA5lqmZJS0oqA-4ImKB0uRd7B2TZ1tAXkbxb1ufdkkH-0kj9Py43pWOBgIsMrj58-hiOFZfDYTA_cbDBSfXw5qiNgQwIcDMfSJNBr91eGU44RJFnWe0AHp7TGrFny3qivIBKNlgkbalkW7o97UuGK9qXnxvPH7Kxj1jcMhmfni6VPZrusAF5MeZFxRxhe5no9DCG6bnTTqzp4We_lBhgwk-ZoxiARBbteq1ipbF325csWGr43xYZEW62Gy99ovBivCTaXriakGORa_LLW0eamxwxFrZ6RyW-tnS_dolPqjpU689kqROl8CmLd1wU1-Xgu6j7iP6POfWCNvZJhcJcnsdYrhaugPnhhs8zrc9M23VYPBojMiaGUG-Grp-KlOxYQmuOERvTWjSSJVz2WV__nCxnU8uP8YkhzKRTTnHmRfRDApIYcWzwhbM4YWZ6CKJIAKPRLZ6F4ptOwGkvw3iDLUrb6ZMO8hn5qYzmMhGbKB5Z-SrpveIDwWA67uCkj1F6j1CdD1BTsS0dUS9aMyOCnkJ7VxKVTd_8nETV2wHQo472MhjQl9BKI1TyuxfwQlLrYKxUI34ShRICIEcjKrvMcDAirpBdZm3Rez93hqKwNa9eE_z8hzbieN0-mduQoOTPVmJFAOVLomhUuv7LCV-q8ewZdZ3fRsdNzHj2uOb7qB-cy8tdUnty0?></g></svg>